<mxfile host="65bd71144e" modified="2021-01-25T05:16:09.742Z" agent="5.0 (Macintosh; Intel Mac OS X 10_15_7) AppleWebKit/537.36 (KHTML, like Gecko) Code/1.52.1 Chrome/83.0.4103.122 Electron/9.3.5 Safari/537.36" etag="cudiK56BTvH2khusosZo" version="14.2.7" type="embed" pages="5">
    <diagram id="8rXn6J1F0hXc0jveFzcs" name="構成図">
        <mxGraphModel dx="804" dy="1631" grid="1" gridSize="10" guides="1" tooltips="1" connect="1" arrows="1" fold="1" page="1" pageScale="1" pageWidth="827" pageHeight="1169" math="0" shadow="0">
            <root>
                <mxCell id="0"/>
                <mxCell id="1" parent="0"/>
                <mxCell id="2" value="minishell 構成図" style="text;html=1;strokeColor=none;fillColor=none;align=center;verticalAlign=middle;whiteSpace=wrap;rounded=0;fontSize=32;" parent="1" vertex="1">
                    <mxGeometry x="10" y="-1150" width="270" height="40" as="geometry"/>
                </mxCell>
                <mxCell id="7" value="prompt.c&lt;br&gt;コマンドプロンプトの受付や準備を行う係&lt;br&gt;&lt;br&gt;char *get_cmd_line()&lt;br&gt;void input_prompt(char **line, char ***args, char ***env, int *status);&lt;br&gt;&lt;br&gt;コーテーションチェック関数：閉じてなかった時は入力状態に移行" style="rounded=0;whiteSpace=wrap;html=1;align=left;" parent="1" vertex="1">
                    <mxGeometry x="70" y="-1000" width="370" height="150" as="geometry"/>
                </mxCell>
                <mxCell id="8" value="util.c&lt;br&gt;&lt;br&gt;void ft_putendl_fd(char *s, int fd)&lt;br&gt;char *ft_join(char *s, char c)&lt;br&gt;void array_free(char *array);" style="rounded=0;whiteSpace=wrap;html=1;align=left;" parent="1" vertex="1">
                    <mxGeometry x="340" y="-1110" width="200" height="80" as="geometry"/>
                </mxCell>
                <mxCell id="9" value="&lt;u&gt;builtin/&lt;br&gt;&lt;/u&gt;エラーの場合はstrerror(errno)で表示させる。&lt;br&gt;&lt;br&gt;int exec_execve(char **args, int fd);&lt;br&gt;void exec_exit(char **args);&lt;br&gt;int exec_cd(char **args, int fd);&lt;br&gt;int exec_env(char **args, int fd);&lt;br&gt;int exec_pwd(int fd);&lt;br&gt;int exec_echo(char **args, int fd)&lt;br&gt;int exec_unset(char **args)&lt;br&gt;int exec_export(char **args, int fd)&amp;nbsp;" style="whiteSpace=wrap;html=1;align=left;" parent="1" vertex="1">
                    <mxGeometry x="480" y="-602" width="300" height="170" as="geometry"/>
                </mxCell>
                <mxCell id="10" value="" style="endArrow=classic;html=1;entryX=0.48;entryY=-0.027;entryDx=0;entryDy=0;exitX=0.5;exitY=1;exitDx=0;exitDy=0;entryPerimeter=0;" parent="1" source="23" target="9" edge="1">
                    <mxGeometry width="50" height="50" relative="1" as="geometry">
                        <mxPoint x="380" y="-760" as="sourcePoint"/>
                        <mxPoint x="430" y="-810" as="targetPoint"/>
                    </mxGeometry>
                </mxCell>
                <mxCell id="11" value="list.c&lt;br&gt;&lt;br&gt;int add_list(void *content);&lt;br&gt;t_list *get_last(t_list **head);&lt;br&gt;t_list *search(void *target);" style="rounded=0;whiteSpace=wrap;html=1;align=left;" parent="1" vertex="1">
                    <mxGeometry x="554" y="-1110" width="246" height="80" as="geometry"/>
                </mxCell>
                <mxCell id="13" value="&lt;h1&gt;共通リスト&lt;/h1&gt;&lt;p&gt;typedef struct s_list {&lt;br&gt;&lt;span&gt;&amp;nbsp; &amp;nbsp; void *data;&lt;br&gt;&amp;nbsp; &amp;nbsp; t_list *next;&lt;br&gt;} t_list;&lt;br&gt;&lt;br&gt;// dataポインタに入る構造体の例&lt;br&gt;typedef struct s_env_param {&lt;br&gt;&amp;nbsp; &amp;nbsp; char *key;&lt;br&gt;&amp;nbsp; &amp;nbsp; char *value;&lt;br&gt;} t_env_param;&lt;br&gt;&lt;br&gt;typedef struct s_user_command {&lt;br&gt;&amp;nbsp; &amp;nbsp; char *command;&lt;br&gt;} t_user_command;&lt;br&gt;&lt;br&gt;&lt;/span&gt;&lt;/p&gt;&lt;p&gt;&lt;span&gt;&lt;br&gt;構造体ポインタをcontentに設定する。&lt;br&gt;ex)&amp;nbsp; 環境変数 { &quot;USER&quot;, &quot;skohraku&quot; }&amp;nbsp;&lt;br&gt;実施済みコマンド { &quot;git clone https://github.com/xxx&quot; }&lt;br&gt;&lt;/span&gt;&lt;/p&gt;" style="text;html=1;strokeColor=none;fillColor=none;spacing=5;spacingTop=-20;whiteSpace=wrap;overflow=hidden;rounded=0;align=left;" parent="1" vertex="1">
                    <mxGeometry x="30" y="-360" width="370" height="370" as="geometry"/>
                </mxCell>
                <mxCell id="14" value="環境変数を問い合わせて値を返す係&lt;br&gt;list操作に関してはlibftを使う。環境変数に特化した部分だけ実装する。&lt;br&gt;&lt;br&gt;&lt;u&gt;&lt;b&gt;env_list_base.c&lt;/b&gt;&lt;/u&gt;&lt;br&gt;void initialize_env_list(char **env);&lt;br&gt;void finalize_env_list();&lt;br&gt;char **get_env_param();&lt;br&gt;&lt;br&gt;&lt;u&gt;&lt;b&gt;env_list.c&lt;/b&gt;&lt;/u&gt;&lt;br&gt;void show_env_list();&lt;br&gt;char *get_env_value(const char *key);&lt;br&gt;int set_env_value(const char *key, const char *value);&lt;br&gt;int remove_env_value(const char *key);" style="rounded=0;whiteSpace=wrap;html=1;align=left;" parent="1" vertex="1">
                    <mxGeometry x="470" y="-400" width="340" height="220" as="geometry"/>
                </mxCell>
                <mxCell id="15" value="Global変数&lt;br&gt;char **current_command&lt;br&gt;(入力をSplitしたもの)" style="rounded=0;whiteSpace=wrap;html=1;align=left;" parent="1" vertex="1">
                    <mxGeometry x="30" y="-1100" width="190" height="60" as="geometry"/>
                </mxCell>
                <mxCell id="16" value="&lt;u&gt;cmd_manager.c&lt;/u&gt;&lt;br&gt;&lt;br&gt;int fd;&lt;br&gt;ユーザーの入力文字を解析して、コマンド実行マネージャーが利用できるようにする係&lt;br&gt;・セミコロンで区切られた場合、1つずつのコマンドに分割する（複数回実行）&lt;br&gt;・小分けにしたコマンド文字列を解放する&lt;br&gt;・入力を準備する(&amp;lt;)&lt;br&gt;・出力先を切り替える(&amp;gt;,&amp;gt;&amp;gt;)&lt;br&gt;・パイプの処理？？？&lt;br&gt;・bonus: || &amp;amp;&amp;amp; 括弧など優先順位を考慮（実行結果を受けて動作を変える）" style="whiteSpace=wrap;html=1;align=left;" parent="1" vertex="1">
                    <mxGeometry x="70" y="-808" width="370" height="206" as="geometry"/>
                </mxCell>
                <mxCell id="19" value="" style="endArrow=classic;html=1;entryX=0.5;entryY=0;entryDx=0;entryDy=0;exitX=0.5;exitY=1;exitDx=0;exitDy=0;" parent="1" source="7" target="16" edge="1">
                    <mxGeometry width="50" height="50" relative="1" as="geometry">
                        <mxPoint x="390" y="-895" as="sourcePoint"/>
                        <mxPoint x="430" y="-930" as="targetPoint"/>
                    </mxGeometry>
                </mxCell>
                <mxCell id="21" value="&lt;u&gt;inout.c&lt;br&gt;&lt;/u&gt;&lt;br&gt;char *dup_redirect_input(char *filename, size_t *len);&lt;br&gt;コマンド実行前に引数の入力を制御する。&lt;br&gt;通常は、コマンド引数を採用する&lt;br&gt;&amp;lt;の時は、ファイルなどを開いて文字列に格納し直す。&lt;br&gt;&lt;br&gt;指定した場所に出力する&lt;br&gt;int set_redirect_output(char *filename, int is_overwrite);&lt;br&gt;&lt;br&gt;全ての出力はここ経由とする。fdや複数の設定を保持する。&lt;br&gt;int output(char *str);&lt;br&gt;後処理&lt;br&gt;void close_fd();" style="whiteSpace=wrap;html=1;align=left;" parent="1" vertex="1">
                    <mxGeometry x="85" y="-490" width="340" height="220" as="geometry"/>
                </mxCell>
                <mxCell id="23" value="&lt;b&gt;pipe_executor.c&lt;/b&gt;&lt;br&gt;&lt;u&gt;exec_pipe_list(int cmd_num, char **pipe_list);&lt;/u&gt;&lt;br&gt;パイプリスト：パイプで切り分けたコマンドリストを実行する係&lt;br&gt;&lt;br&gt;&lt;u&gt;&lt;b&gt;executor.c&lt;/b&gt;&lt;/u&gt;&lt;br&gt;static int sh_launch(char **args, char **env);&lt;br&gt;int sh_execute(char **args, char **env, int fd);&lt;br&gt;1コマンドを実行する係&lt;br&gt;コマンド不正はここで出力&lt;br&gt;$?の設定" style="whiteSpace=wrap;html=1;align=left;" parent="1" vertex="1">
                    <mxGeometry x="500" y="-810" width="310" height="170" as="geometry"/>
                </mxCell>
                <mxCell id="24" value="" style="endArrow=classic;html=1;exitX=0.25;exitY=1;exitDx=0;exitDy=0;entryX=0.5;entryY=0;entryDx=0;entryDy=0;" parent="1" source="16" target="21" edge="1">
                    <mxGeometry width="50" height="50" relative="1" as="geometry">
                        <mxPoint x="690" y="-880" as="sourcePoint"/>
                        <mxPoint x="740" y="-930" as="targetPoint"/>
                    </mxGeometry>
                </mxCell>
                <mxCell id="25" value="" style="endArrow=classic;html=1;exitX=1;exitY=0.5;exitDx=0;exitDy=0;entryX=0;entryY=0.5;entryDx=0;entryDy=0;" parent="1" source="16" target="23" edge="1">
                    <mxGeometry width="50" height="50" relative="1" as="geometry">
                        <mxPoint x="690" y="-880" as="sourcePoint"/>
                        <mxPoint x="740" y="-930" as="targetPoint"/>
                    </mxGeometry>
                </mxCell>
                <mxCell id="26" value="ユーティリティ関数" style="text;html=1;strokeColor=none;fillColor=none;align=center;verticalAlign=middle;whiteSpace=wrap;rounded=0;" parent="1" vertex="1">
                    <mxGeometry x="450" y="-1140" width="200" height="20" as="geometry"/>
                </mxCell>
                <mxCell id="28" value="" style="endArrow=classic;html=1;exitX=0.5;exitY=1;exitDx=0;exitDy=0;entryX=0.5;entryY=0;entryDx=0;entryDy=0;" parent="1" source="9" target="14" edge="1">
                    <mxGeometry width="50" height="50" relative="1" as="geometry">
                        <mxPoint x="420" y="-280" as="sourcePoint"/>
                        <mxPoint x="590" y="-310" as="targetPoint"/>
                    </mxGeometry>
                </mxCell>
                <mxCell id="29" value="&lt;u&gt;ユーザーコマンド&lt;/u&gt;&lt;br&gt;&lt;br&gt;history用のクラス&lt;br&gt;ユーザーが入力したコマンドを保持。&lt;br&gt;&lt;br&gt;static t_list **top;&lt;br&gt;int add_command(char *cmd);&lt;br&gt;char *prev_command();&lt;br&gt;char *next_command();" style="whiteSpace=wrap;html=1;align=left;" parent="1" vertex="1">
                    <mxGeometry x="440" y="-90" width="335" height="140" as="geometry"/>
                </mxCell>
                <mxCell id="30" value="&lt;u&gt;env_info.c&lt;/u&gt;&lt;br&gt;&lt;br&gt;char *g_env&lt;br&gt;t_list *g_env_list_top&lt;br&gt;char *g_env_question" style="rounded=0;whiteSpace=wrap;html=1;align=left;" parent="1" vertex="1">
                    <mxGeometry x="650" y="-190" width="150" height="80" as="geometry"/>
                </mxCell>
                <mxCell id="224rtaX7X39T5z5zW9lJ-30" value="" style="endArrow=classic;html=1;exitX=0;exitY=0.5;exitDx=0;exitDy=0;entryX=0.533;entryY=0;entryDx=0;entryDy=0;entryPerimeter=0;" parent="1" source="9" target="21" edge="1">
                    <mxGeometry width="50" height="50" relative="1" as="geometry">
                        <mxPoint x="360" y="-410" as="sourcePoint"/>
                        <mxPoint x="410" y="-460" as="targetPoint"/>
                    </mxGeometry>
                </mxCell>
            </root>
        </mxGraphModel>
    </diagram>
    <diagram id="qc1QQhCkBsamnLW85WN9" name="フロー図">
        &#xa;        &#xa;        &#xa;        &#xa;        &#xa;        &#xa;&#xa;&#xa;&#xa;&#xa;&#xa;
        <mxGraphModel dx="1064" dy="590" grid="1" gridSize="10" guides="1" tooltips="1" connect="1" arrows="1" fold="1" page="1" pageScale="1" pageWidth="827" pageHeight="1169" math="0" shadow="0">
            &#xa;            &#xa;            &#xa;            &#xa;            &#xa;            &#xa;&#xa;&#xa;&#xa;&#xa;&#xa;
            <root>
                &#xa;                &#xa;                &#xa;                &#xa;                &#xa;                &#xa;&#xa;&#xa;&#xa;&#xa;&#xa;
                <mxCell id="Vm-qLk_0YOqzzcymPKnQ-0"/>
                &#xa;                &#xa;                &#xa;                &#xa;                &#xa;                &#xa;&#xa;&#xa;&#xa;&#xa;&#xa;
                <mxCell id="Vm-qLk_0YOqzzcymPKnQ-1" parent="Vm-qLk_0YOqzzcymPKnQ-0"/>
                &#xa;                &#xa;                &#xa;                &#xa;                &#xa;                &#xa;&#xa;&#xa;&#xa;&#xa;&#xa;
                <mxCell id="W0qJDJvwcw3Gnz3oxyco-0" value="コマンドマネージャのフロー" style="text;html=1;strokeColor=none;fillColor=none;align=center;verticalAlign=middle;whiteSpace=wrap;rounded=0;fontSize=24;" parent="Vm-qLk_0YOqzzcymPKnQ-1" vertex="1">
                    &#xa;                    &#xa;                    &#xa;                    &#xa;                    &#xa;                    &#xa;&#xa;&#xa;&#xa;&#xa;&#xa;
                    <mxGeometry x="20" y="10" width="350" height="40" as="geometry"/>
                    &#xa;                    &#xa;                    &#xa;                    &#xa;                    &#xa;                    &#xa;&#xa;&#xa;&#xa;&#xa;&#xa;
                </mxCell>
                &#xa;                &#xa;                &#xa;                &#xa;                &#xa;                &#xa;&#xa;&#xa;&#xa;&#xa;&#xa;
                <mxCell id="1OFQfx3OAHXFVRJQY0fg-0" value="&amp;gt; xxx&lt;br&gt;出力先をファイルに指定" style="shape=process;whiteSpace=wrap;html=1;backgroundOutline=1;fontSize=12;" parent="Vm-qLk_0YOqzzcymPKnQ-1" vertex="1">
                    &#xa;                    &#xa;                    &#xa;                    &#xa;                    &#xa;                    &#xa;&#xa;&#xa;&#xa;&#xa;&#xa;
                    <mxGeometry x="508.75" y="802.5" width="190" height="40" as="geometry"/>
                    &#xa;                    &#xa;                    &#xa;                    &#xa;                    &#xa;                    &#xa;&#xa;&#xa;&#xa;&#xa;&#xa;
                </mxCell>
                &#xa;                &#xa;                &#xa;                &#xa;                &#xa;                &#xa;&#xa;&#xa;&#xa;&#xa;&#xa;
                <mxCell id="1OFQfx3OAHXFVRJQY0fg-1" value="&amp;lt; yyy&lt;br&gt;文字列の入力にする" style="shape=process;whiteSpace=wrap;html=1;backgroundOutline=1;fontSize=12;" parent="Vm-qLk_0YOqzzcymPKnQ-1" vertex="1">
                    &#xa;                    &#xa;                    &#xa;                    &#xa;                    &#xa;                    &#xa;&#xa;&#xa;&#xa;&#xa;&#xa;
                    <mxGeometry x="519.5" y="490" width="180" height="40" as="geometry"/>
                    &#xa;                    &#xa;                    &#xa;                    &#xa;                    &#xa;                    &#xa;&#xa;&#xa;&#xa;&#xa;&#xa;
                </mxCell>
                &#xa;                &#xa;                &#xa;                &#xa;                &#xa;                &#xa;&#xa;&#xa;&#xa;&#xa;&#xa;
                <mxCell id="1OFQfx3OAHXFVRJQY0fg-2" value="$ENV&lt;br&gt;文字列の入力にする" style="shape=process;whiteSpace=wrap;html=1;backgroundOutline=1;fontSize=12;" parent="Vm-qLk_0YOqzzcymPKnQ-1" vertex="1">
                    &#xa;                    &#xa;                    &#xa;                    &#xa;                    &#xa;                    &#xa;&#xa;&#xa;&#xa;&#xa;&#xa;
                    <mxGeometry x="531" y="545" width="147" height="40" as="geometry"/>
                    &#xa;                    &#xa;                    &#xa;                    &#xa;                    &#xa;                    &#xa;&#xa;&#xa;&#xa;&#xa;&#xa;
                </mxCell>
                &#xa;                &#xa;                &#xa;                &#xa;                &#xa;                &#xa;&#xa;&#xa;&#xa;&#xa;&#xa;
                <mxCell id="1OFQfx3OAHXFVRJQY0fg-3" value="* wildcard処理&lt;br&gt;該当する文字列の入力にする" style="shape=process;whiteSpace=wrap;html=1;backgroundOutline=1;fontSize=12;" parent="Vm-qLk_0YOqzzcymPKnQ-1" vertex="1">
                    &#xa;                    &#xa;                    &#xa;                    &#xa;                    &#xa;                    &#xa;&#xa;&#xa;&#xa;&#xa;&#xa;
                    <mxGeometry x="504.5" y="600" width="210" height="40" as="geometry"/>
                    &#xa;                    &#xa;                    &#xa;                    &#xa;                    &#xa;                    &#xa;&#xa;&#xa;&#xa;&#xa;&#xa;
                </mxCell>
                &#xa;                &#xa;                &#xa;                &#xa;                &#xa;                &#xa;&#xa;&#xa;&#xa;&#xa;&#xa;
                <mxCell id="1OFQfx3OAHXFVRJQY0fg-4" value="グループリストに分割" style="shape=process;whiteSpace=wrap;html=1;backgroundOutline=1;fontSize=12;" parent="Vm-qLk_0YOqzzcymPKnQ-1" vertex="1">
                    &#xa;                    &#xa;                    &#xa;                    &#xa;                    &#xa;                    &#xa;&#xa;&#xa;&#xa;&#xa;&#xa;
                    <mxGeometry x="60" y="150" width="200" height="30" as="geometry"/>
                    &#xa;                    &#xa;                    &#xa;                    &#xa;                    &#xa;                    &#xa;&#xa;&#xa;&#xa;&#xa;&#xa;
                </mxCell>
                &#xa;                &#xa;                &#xa;                &#xa;                &#xa;                &#xa;&#xa;&#xa;&#xa;&#xa;&#xa;
                <mxCell id="1OFQfx3OAHXFVRJQY0fg-5" value="readの文字列を受け取る&lt;br&gt;input_prompt" style="rounded=1;whiteSpace=wrap;html=1;fontSize=12;" parent="Vm-qLk_0YOqzzcymPKnQ-1" vertex="1">
                    &#xa;                    &#xa;                    &#xa;                    &#xa;                    &#xa;                    &#xa;&#xa;&#xa;&#xa;&#xa;&#xa;
                    <mxGeometry x="80" y="80" width="160" height="30" as="geometry"/>
                    &#xa;                    &#xa;                    &#xa;                    &#xa;                    &#xa;                    &#xa;&#xa;&#xa;&#xa;&#xa;&#xa;
                </mxCell>
                &#xa;                &#xa;                &#xa;                &#xa;                &#xa;                &#xa;&#xa;&#xa;&#xa;&#xa;&#xa;
                <mxCell id="1OFQfx3OAHXFVRJQY0fg-9" value="パイプリストに分割" style="shape=process;whiteSpace=wrap;html=1;backgroundOutline=1;fontSize=12;" parent="Vm-qLk_0YOqzzcymPKnQ-1" vertex="1">
                    &#xa;                    &#xa;                    &#xa;                    &#xa;                    &#xa;                    &#xa;&#xa;&#xa;&#xa;&#xa;&#xa;
                    <mxGeometry x="75" y="330" width="170" height="40" as="geometry"/>
                    &#xa;                    &#xa;                    &#xa;                    &#xa;                    &#xa;                    &#xa;&#xa;&#xa;&#xa;&#xa;&#xa;
                </mxCell>
                &#xa;                &#xa;                &#xa;                &#xa;                &#xa;                &#xa;&#xa;&#xa;&#xa;&#xa;&#xa;
                <mxCell id="1OFQfx3OAHXFVRJQY0fg-13" value="今は、sh_execute&lt;br&gt;exec_commandに変更予定&lt;br&gt;(コマンドリスト, 出力先指定)" style="shape=process;whiteSpace=wrap;html=1;backgroundOutline=1;fontSize=12;" parent="Vm-qLk_0YOqzzcymPKnQ-1" vertex="1">
                    &#xa;                    &#xa;                    &#xa;                    &#xa;                    &#xa;                    &#xa;&#xa;&#xa;&#xa;&#xa;&#xa;
                    <mxGeometry x="50" y="610" width="225" height="65" as="geometry"/>
                    &#xa;                    &#xa;                    &#xa;                    &#xa;                    &#xa;                    &#xa;&#xa;&#xa;&#xa;&#xa;&#xa;
                </mxCell>
                &#xa;                &#xa;                &#xa;                &#xa;                &#xa;                &#xa;&#xa;&#xa;&#xa;&#xa;&#xa;
                <mxCell id="mPCId1YOEe2htGxt5DQf-0" value="1コマンドグループを実行" style="shape=trapezoid;perimeter=trapezoidPerimeter;whiteSpace=wrap;html=1;fixedSize=1;fontSize=12;" parent="Vm-qLk_0YOqzzcymPKnQ-1" vertex="1">
                    &#xa;                    &#xa;                    &#xa;                    &#xa;                    &#xa;                    &#xa;&#xa;&#xa;&#xa;&#xa;&#xa;
                    <mxGeometry x="50" y="210" width="220" height="30" as="geometry"/>
                    &#xa;                    &#xa;                    &#xa;                    &#xa;                    &#xa;                    &#xa;&#xa;&#xa;&#xa;&#xa;&#xa;
                </mxCell>
                &#xa;                &#xa;                &#xa;                &#xa;                &#xa;                &#xa;&#xa;&#xa;&#xa;&#xa;&#xa;
                <mxCell id="mPCId1YOEe2htGxt5DQf-2" value="1コマンドを実行&lt;br&gt;exec_pipe_list" style="shape=trapezoid;perimeter=trapezoidPerimeter;whiteSpace=wrap;html=1;fixedSize=1;fontSize=12;" parent="Vm-qLk_0YOqzzcymPKnQ-1" vertex="1">
                    &#xa;                    &#xa;                    &#xa;                    &#xa;                    &#xa;                    &#xa;&#xa;&#xa;&#xa;&#xa;&#xa;
                    <mxGeometry x="80" y="405" width="160" height="30" as="geometry"/>
                    &#xa;                    &#xa;                    &#xa;                    &#xa;                    &#xa;                    &#xa;&#xa;&#xa;&#xa;&#xa;&#xa;
                </mxCell>
                &#xa;                &#xa;                &#xa;                &#xa;                &#xa;                &#xa;&#xa;&#xa;&#xa;&#xa;&#xa;
                <mxCell id="mPCId1YOEe2htGxt5DQf-5" value="ex) &quot;cmd0 x y&quot;" style="text;html=1;strokeColor=none;fillColor=none;align=left;verticalAlign=middle;whiteSpace=wrap;rounded=0;fontSize=12;" parent="Vm-qLk_0YOqzzcymPKnQ-1" vertex="1">
                    &#xa;                    &#xa;                    &#xa;                    &#xa;                    &#xa;                    &#xa;&#xa;&#xa;&#xa;&#xa;&#xa;
                    <mxGeometry x="300" y="405" width="190" height="20" as="geometry"/>
                    &#xa;                    &#xa;                    &#xa;                    &#xa;                    &#xa;                    &#xa;&#xa;&#xa;&#xa;&#xa;&#xa;
                </mxCell>
                &#xa;                &#xa;                &#xa;                &#xa;                &#xa;                &#xa;&#xa;&#xa;&#xa;&#xa;&#xa;
                <mxCell id="mPCId1YOEe2htGxt5DQf-6" value="&lt;b&gt;パイプリスト&lt;/b&gt;に分割&lt;br&gt;&quot;cmd0 x y|&amp;nbsp; &amp;nbsp;cmd1&amp;nbsp; z| cmd2 &amp;gt;hoge&amp;nbsp; &amp;nbsp;|cmd3&quot;&lt;br&gt;↓&lt;br&gt;&quot;cmd0 x y &quot;&lt;br&gt;&quot;cmd1 z&quot;&lt;br&gt;&quot;cmd2 &amp;gt;hoge &quot;&lt;br&gt;&quot;cmd3&quot;" style="text;html=1;strokeColor=none;fillColor=none;align=left;verticalAlign=middle;whiteSpace=wrap;rounded=0;fontSize=12;" parent="Vm-qLk_0YOqzzcymPKnQ-1" vertex="1">
                    &#xa;                    &#xa;                    &#xa;                    &#xa;                    &#xa;                    &#xa;&#xa;&#xa;&#xa;&#xa;&#xa;
                    <mxGeometry x="299" y="280" width="251" height="110" as="geometry"/>
                    &#xa;                    &#xa;                    &#xa;                    &#xa;                    &#xa;                    &#xa;&#xa;&#xa;&#xa;&#xa;&#xa;
                </mxCell>
                &#xa;                &#xa;                &#xa;                &#xa;                &#xa;                &#xa;&#xa;&#xa;&#xa;&#xa;&#xa;
                <mxCell id="mPCId1YOEe2htGxt5DQf-7" value="nextがpipeなら出力先を文字列に指定" style="shape=process;whiteSpace=wrap;html=1;backgroundOutline=1;fontSize=12;align=center;" parent="Vm-qLk_0YOqzzcymPKnQ-1" vertex="1">
                    &#xa;                    &#xa;                    &#xa;                    &#xa;                    &#xa;                    &#xa;&#xa;&#xa;&#xa;&#xa;&#xa;
                    <mxGeometry x="678" y="750" width="160" height="40" as="geometry"/>
                    &#xa;                    &#xa;                    &#xa;                    &#xa;                    &#xa;                    &#xa;&#xa;&#xa;&#xa;&#xa;&#xa;
                </mxCell>
                &#xa;                &#xa;                &#xa;                &#xa;                &#xa;                &#xa;&#xa;&#xa;&#xa;&#xa;&#xa;
                <mxCell id="mPCId1YOEe2htGxt5DQf-8" value="" style="shape=trapezoid;perimeter=trapezoidPerimeter;whiteSpace=wrap;html=1;fixedSize=1;fontSize=12;align=center;rotation=-180;" parent="Vm-qLk_0YOqzzcymPKnQ-1" vertex="1">
                    &#xa;                    &#xa;                    &#xa;                    &#xa;                    &#xa;                    &#xa;&#xa;&#xa;&#xa;&#xa;&#xa;
                    <mxGeometry x="85" y="725" width="160" height="30" as="geometry"/>
                    &#xa;                    &#xa;                    &#xa;                    &#xa;                    &#xa;                    &#xa;&#xa;&#xa;&#xa;&#xa;&#xa;
                </mxCell>
                &#xa;                &#xa;                &#xa;                &#xa;                &#xa;                &#xa;&#xa;&#xa;&#xa;&#xa;&#xa;
                <mxCell id="mPCId1YOEe2htGxt5DQf-11" value="結果を$?に格納" style="rounded=0;whiteSpace=wrap;html=1;fontSize=12;align=center;" parent="Vm-qLk_0YOqzzcymPKnQ-1" vertex="1">
                    &#xa;                    &#xa;                    &#xa;                    &#xa;                    &#xa;                    &#xa;&#xa;&#xa;&#xa;&#xa;&#xa;
                    <mxGeometry x="94.38" y="680" width="131.25" height="30" as="geometry"/>
                    &#xa;                    &#xa;                    &#xa;                    &#xa;                    &#xa;                    &#xa;&#xa;&#xa;&#xa;&#xa;&#xa;
                </mxCell>
                &#xa;                &#xa;                &#xa;                &#xa;                &#xa;                &#xa;&#xa;&#xa;&#xa;&#xa;&#xa;
                <mxCell id="mPCId1YOEe2htGxt5DQf-12" value="" style="shape=trapezoid;perimeter=trapezoidPerimeter;whiteSpace=wrap;html=1;fixedSize=1;fontSize=12;align=center;rotation=-180;horizontal=1;" parent="Vm-qLk_0YOqzzcymPKnQ-1" vertex="1">
                    &#xa;                    &#xa;                    &#xa;                    &#xa;                    &#xa;                    &#xa;&#xa;&#xa;&#xa;&#xa;&#xa;
                    <mxGeometry x="60" y="762.5" width="230" height="30" as="geometry"/>
                    &#xa;                    &#xa;                    &#xa;                    &#xa;                    &#xa;                    &#xa;&#xa;&#xa;&#xa;&#xa;&#xa;
                </mxCell>
                &#xa;                &#xa;                &#xa;                &#xa;                &#xa;                &#xa;&#xa;&#xa;&#xa;&#xa;&#xa;
                <mxCell id="mPCId1YOEe2htGxt5DQf-13" value="入力置き換え処理" style="rounded=1;whiteSpace=wrap;html=1;fontSize=12;align=center;" parent="Vm-qLk_0YOqzzcymPKnQ-1" vertex="1">
                    &#xa;                    &#xa;                    &#xa;                    &#xa;                    &#xa;                    &#xa;&#xa;&#xa;&#xa;&#xa;&#xa;
                    <mxGeometry x="510" y="380" width="200.25" height="40" as="geometry"/>
                    &#xa;                    &#xa;                    &#xa;                    &#xa;                    &#xa;                    &#xa;&#xa;&#xa;&#xa;&#xa;&#xa;
                </mxCell>
                &#xa;                &#xa;                &#xa;                &#xa;                &#xa;                &#xa;&#xa;&#xa;&#xa;&#xa;&#xa;
                <mxCell id="mPCId1YOEe2htGxt5DQf-15" value="入力を置き換え処理" style="shape=process;whiteSpace=wrap;html=1;backgroundOutline=1;fontSize=12;align=center;" parent="Vm-qLk_0YOqzzcymPKnQ-1" vertex="1">
                    &#xa;                    &#xa;                    &#xa;                    &#xa;                    &#xa;                    &#xa;&#xa;&#xa;&#xa;&#xa;&#xa;
                    <mxGeometry x="70" y="515" width="185" height="30" as="geometry"/>
                    &#xa;                    &#xa;                    &#xa;                    &#xa;                    &#xa;                    &#xa;&#xa;&#xa;&#xa;&#xa;&#xa;
                </mxCell>
                &#xa;                &#xa;                &#xa;                &#xa;                &#xa;                &#xa;&#xa;&#xa;&#xa;&#xa;&#xa;
                <mxCell id="mPCId1YOEe2htGxt5DQf-16" value="prevがpipeなら前の結果の&lt;br&gt;文字列を入力にする" style="shape=process;whiteSpace=wrap;html=1;backgroundOutline=1;fontSize=12;align=center;" parent="Vm-qLk_0YOqzzcymPKnQ-1" vertex="1">
                    &#xa;                    &#xa;                    &#xa;                    &#xa;                    &#xa;                    &#xa;&#xa;&#xa;&#xa;&#xa;&#xa;
                    <mxGeometry x="670" y="435" width="201.5" height="35" as="geometry"/>
                    &#xa;                    &#xa;                    &#xa;                    &#xa;                    &#xa;                    &#xa;&#xa;&#xa;&#xa;&#xa;&#xa;
                </mxCell>
                &#xa;                &#xa;                &#xa;                &#xa;                &#xa;                &#xa;&#xa;&#xa;&#xa;&#xa;&#xa;
                <mxCell id="mPCId1YOEe2htGxt5DQf-18" value="出力を設定" style="shape=process;whiteSpace=wrap;html=1;backgroundOutline=1;fontSize=12;align=center;" parent="Vm-qLk_0YOqzzcymPKnQ-1" vertex="1">
                    &#xa;                    &#xa;                    &#xa;                    &#xa;                    &#xa;                    &#xa;&#xa;&#xa;&#xa;&#xa;&#xa;
                    <mxGeometry x="70" y="560" width="187.5" height="35" as="geometry"/>
                    &#xa;                    &#xa;                    &#xa;                    &#xa;                    &#xa;                    &#xa;&#xa;&#xa;&#xa;&#xa;&#xa;
                </mxCell>
                &#xa;                &#xa;                &#xa;                &#xa;                &#xa;                &#xa;&#xa;&#xa;&#xa;&#xa;&#xa;
                <mxCell id="mPCId1YOEe2htGxt5DQf-19" value="出力を設定" style="rounded=1;whiteSpace=wrap;html=1;fontSize=12;align=center;" parent="Vm-qLk_0YOqzzcymPKnQ-1" vertex="1">
                    &#xa;                    &#xa;                    &#xa;                    &#xa;                    &#xa;                    &#xa;&#xa;&#xa;&#xa;&#xa;&#xa;
                    <mxGeometry x="501.5" y="697.5" width="206" height="40" as="geometry"/>
                    &#xa;                    &#xa;                    &#xa;                    &#xa;                    &#xa;                    &#xa;&#xa;&#xa;&#xa;&#xa;&#xa;
                </mxCell>
                &#xa;                &#xa;                &#xa;                &#xa;                &#xa;                &#xa;&#xa;&#xa;&#xa;&#xa;&#xa;
                <mxCell id="mPCId1YOEe2htGxt5DQf-21" value="コマンドリストに分割" style="shape=process;whiteSpace=wrap;html=1;backgroundOutline=1;fontSize=12;align=center;" parent="Vm-qLk_0YOqzzcymPKnQ-1" vertex="1">
                    &#xa;                    &#xa;                    &#xa;                    &#xa;                    &#xa;                    &#xa;&#xa;&#xa;&#xa;&#xa;&#xa;
                    <mxGeometry x="75" y="450" width="180" height="50" as="geometry"/>
                    &#xa;                    &#xa;                    &#xa;                    &#xa;                    &#xa;                    &#xa;&#xa;&#xa;&#xa;&#xa;&#xa;
                </mxCell>
                &#xa;                &#xa;                &#xa;                &#xa;                &#xa;                &#xa;&#xa;&#xa;&#xa;&#xa;&#xa;
                <mxCell id="mPCId1YOEe2htGxt5DQf-22" value="&lt;b&gt;コマンドリスト&lt;/b&gt;に分割&lt;br&gt;&quot;cmd0&quot;, &quot;x&quot;, &quot;y&quot;, &quot;&amp;lt; hoge.txt&quot;" style="text;html=1;strokeColor=none;fillColor=none;align=left;verticalAlign=middle;whiteSpace=wrap;rounded=0;fontSize=12;" parent="Vm-qLk_0YOqzzcymPKnQ-1" vertex="1">
                    &#xa;                    &#xa;                    &#xa;                    &#xa;                    &#xa;                    &#xa;&#xa;&#xa;&#xa;&#xa;&#xa;
                    <mxGeometry x="299" y="465" width="163" height="40" as="geometry"/>
                    &#xa;                    &#xa;                    &#xa;                    &#xa;                    &#xa;                    &#xa;&#xa;&#xa;&#xa;&#xa;&#xa;
                </mxCell>
                &#xa;                &#xa;                &#xa;                &#xa;                &#xa;                &#xa;&#xa;&#xa;&#xa;&#xa;&#xa;
                <mxCell id="mPCId1YOEe2htGxt5DQf-23" value="||や&amp;amp;&amp;amp;なら結果を受けて実行するかを判定&amp;nbsp;continue;" style="rhombus;whiteSpace=wrap;html=1;fontSize=12;align=center;" parent="Vm-qLk_0YOqzzcymPKnQ-1" vertex="1">
                    &#xa;                    &#xa;                    &#xa;                    &#xa;                    &#xa;                    &#xa;&#xa;&#xa;&#xa;&#xa;&#xa;
                    <mxGeometry x="60" y="260" width="200" height="40" as="geometry"/>
                    &#xa;                    &#xa;                    &#xa;                    &#xa;                    &#xa;                    &#xa;&#xa;&#xa;&#xa;&#xa;&#xa;
                </mxCell>
                &#xa;                &#xa;                &#xa;                &#xa;                &#xa;                &#xa;&#xa;&#xa;&#xa;&#xa;&#xa;
                <mxCell id="mPCId1YOEe2htGxt5DQf-24" value="&lt;b&gt;グループリスト&lt;/b&gt;に分割 ; || &amp;amp;&amp;amp;&lt;br&gt;&quot;cmd0 xx; cmd1 zz 00| cmd1 qq &amp;amp;&amp;amp; cmd2 1 2 3&quot;&lt;br&gt;↓&lt;br&gt;&quot;cmd0 xx&quot;&lt;br&gt;&quot;cmd1 zz 00 | cmd1 qq&quot;&lt;br&gt;&quot;cmd2 1 2 3&quot;" style="text;html=1;strokeColor=none;fillColor=none;align=left;verticalAlign=middle;whiteSpace=wrap;rounded=0;fontSize=12;" parent="Vm-qLk_0YOqzzcymPKnQ-1" vertex="1">
                    &#xa;                    &#xa;                    &#xa;                    &#xa;                    &#xa;                    &#xa;&#xa;&#xa;&#xa;&#xa;&#xa;
                    <mxGeometry x="299" y="130" width="285.5" height="90" as="geometry"/>
                    &#xa;                    &#xa;                    &#xa;                    &#xa;                    &#xa;                    &#xa;&#xa;&#xa;&#xa;&#xa;&#xa;
                </mxCell>
                &#xa;                &#xa;                &#xa;                &#xa;                &#xa;                &#xa;&#xa;&#xa;&#xa;&#xa;&#xa;
            </root>
            &#xa;            &#xa;            &#xa;            &#xa;            &#xa;            &#xa;&#xa;&#xa;&#xa;&#xa;&#xa;
        </mxGraphModel>
        &#xa;        &#xa;        &#xa;        &#xa;        &#xa;        &#xa;&#xa;&#xa;&#xa;&#xa;&#xa;
    </diagram>
    <diagram id="2TIMZzt3Q1oJytqTdehU" name="クラス図(設計時)">
        &#xa;        &#xa;        &#xa;        &#xa;        &#xa;        &#xa;&#xa;&#xa;&#xa;&#xa;&#xa;
        <mxGraphModel dx="1891" dy="590" grid="1" gridSize="10" guides="1" tooltips="1" connect="1" arrows="1" fold="1" page="1" pageScale="1" pageWidth="827" pageHeight="1169" math="0" shadow="0">
            &#xa;            &#xa;            &#xa;            &#xa;            &#xa;            &#xa;&#xa;&#xa;&#xa;&#xa;&#xa;
            <root>
                &#xa;                &#xa;                &#xa;                &#xa;                &#xa;                &#xa;&#xa;&#xa;&#xa;&#xa;&#xa;
                <mxCell id="r2tvkVw-2xmfGGPtcW46-0"/>
                &#xa;                &#xa;                &#xa;                &#xa;                &#xa;                &#xa;&#xa;&#xa;&#xa;&#xa;&#xa;
                <mxCell id="r2tvkVw-2xmfGGPtcW46-1" parent="r2tvkVw-2xmfGGPtcW46-0"/>
                &#xa;                &#xa;                &#xa;                &#xa;                &#xa;                &#xa;&#xa;&#xa;&#xa;&#xa;&#xa;
                <mxCell id="r2tvkVw-2xmfGGPtcW46-2" value="&lt;b&gt;&lt;u&gt;prompt.c&lt;/u&gt;&lt;/b&gt;&lt;br&gt;&lt;br&gt;input_prompt" style="rounded=0;whiteSpace=wrap;html=1;align=left;" parent="r2tvkVw-2xmfGGPtcW46-1" vertex="1">
                    &#xa;                    &#xa;                    &#xa;                    &#xa;                    &#xa;                    &#xa;&#xa;&#xa;&#xa;&#xa;&#xa;
                    <mxGeometry x="10" y="105" width="140" height="95" as="geometry"/>
                    &#xa;                    &#xa;                    &#xa;                    &#xa;                    &#xa;                    &#xa;&#xa;&#xa;&#xa;&#xa;&#xa;
                </mxCell>
                &#xa;                &#xa;                &#xa;                &#xa;                &#xa;                &#xa;&#xa;&#xa;&#xa;&#xa;&#xa;
                <mxCell id="r2tvkVw-2xmfGGPtcW46-3" value="&lt;b&gt;&lt;u&gt;env_list_base.c&lt;/u&gt;&lt;/b&gt;&lt;br&gt;&lt;br&gt;initialize_env_list&lt;br&gt;finalize_env_list" style="rounded=0;whiteSpace=wrap;html=1;align=left;" parent="r2tvkVw-2xmfGGPtcW46-1" vertex="1">
                    &#xa;                    &#xa;                    &#xa;                    &#xa;                    &#xa;                    &#xa;&#xa;&#xa;&#xa;&#xa;&#xa;
                    <mxGeometry x="330" y="80" width="120" height="60" as="geometry"/>
                    &#xa;                    &#xa;                    &#xa;                    &#xa;                    &#xa;                    &#xa;&#xa;&#xa;&#xa;&#xa;&#xa;
                </mxCell>
                &#xa;                &#xa;                &#xa;                &#xa;                &#xa;                &#xa;&#xa;&#xa;&#xa;&#xa;&#xa;
                <mxCell id="r2tvkVw-2xmfGGPtcW46-4" value="main.c" style="rounded=0;whiteSpace=wrap;html=1;align=left;" parent="r2tvkVw-2xmfGGPtcW46-1" vertex="1">
                    &#xa;                    &#xa;                    &#xa;                    &#xa;                    &#xa;                    &#xa;&#xa;&#xa;&#xa;&#xa;&#xa;
                    <mxGeometry x="45" y="20" width="70" height="40" as="geometry"/>
                    &#xa;                    &#xa;                    &#xa;                    &#xa;                    &#xa;                    &#xa;&#xa;&#xa;&#xa;&#xa;&#xa;
                </mxCell>
                &#xa;                &#xa;                &#xa;                &#xa;                &#xa;                &#xa;&#xa;&#xa;&#xa;&#xa;&#xa;
                <mxCell id="r2tvkVw-2xmfGGPtcW46-5" value="" style="endArrow=classic;html=1;exitX=0.5;exitY=1;exitDx=0;exitDy=0;entryX=0.5;entryY=0;entryDx=0;entryDy=0;" parent="r2tvkVw-2xmfGGPtcW46-1" source="r2tvkVw-2xmfGGPtcW46-4" target="r2tvkVw-2xmfGGPtcW46-2" edge="1">
                    &#xa;                    &#xa;                    &#xa;                    &#xa;                    &#xa;                    &#xa;&#xa;&#xa;&#xa;&#xa;&#xa;
                    <mxGeometry width="50" height="50" relative="1" as="geometry">
                        &#xa;                        &#xa;                        &#xa;                        &#xa;                        &#xa;                        &#xa;&#xa;&#xa;&#xa;&#xa;&#xa;
                        <mxPoint x="270" y="270" as="sourcePoint"/>
                        &#xa;                        &#xa;                        &#xa;                        &#xa;                        &#xa;                        &#xa;&#xa;&#xa;&#xa;&#xa;&#xa;
                        <mxPoint x="320" y="220" as="targetPoint"/>
                        &#xa;                        &#xa;                        &#xa;                        &#xa;                        &#xa;                        &#xa;&#xa;&#xa;&#xa;&#xa;&#xa;
                    </mxGeometry>
                    &#xa;                    &#xa;                    &#xa;                    &#xa;                    &#xa;                    &#xa;&#xa;&#xa;&#xa;&#xa;&#xa;
                </mxCell>
                &#xa;                &#xa;                &#xa;                &#xa;                &#xa;                &#xa;&#xa;&#xa;&#xa;&#xa;&#xa;
                <mxCell id="r2tvkVw-2xmfGGPtcW46-6" value="" style="endArrow=classic;html=1;exitX=1;exitY=0.5;exitDx=0;exitDy=0;entryX=0;entryY=0.5;entryDx=0;entryDy=0;" parent="r2tvkVw-2xmfGGPtcW46-1" source="r2tvkVw-2xmfGGPtcW46-2" target="r2tvkVw-2xmfGGPtcW46-3" edge="1">
                    &#xa;                    &#xa;                    &#xa;                    &#xa;                    &#xa;                    &#xa;&#xa;&#xa;&#xa;&#xa;&#xa;
                    <mxGeometry width="50" height="50" relative="1" as="geometry">
                        &#xa;                        &#xa;                        &#xa;                        &#xa;                        &#xa;                        &#xa;&#xa;&#xa;&#xa;&#xa;&#xa;
                        <mxPoint x="270" y="270" as="sourcePoint"/>
                        &#xa;                        &#xa;                        &#xa;                        &#xa;                        &#xa;                        &#xa;&#xa;&#xa;&#xa;&#xa;&#xa;
                        <mxPoint x="320" y="220" as="targetPoint"/>
                        &#xa;                        &#xa;                        &#xa;                        &#xa;                        &#xa;                        &#xa;&#xa;&#xa;&#xa;&#xa;&#xa;
                    </mxGeometry>
                    &#xa;                    &#xa;                    &#xa;                    &#xa;                    &#xa;                    &#xa;&#xa;&#xa;&#xa;&#xa;&#xa;
                </mxCell>
                &#xa;                &#xa;                &#xa;                &#xa;                &#xa;                &#xa;&#xa;&#xa;&#xa;&#xa;&#xa;
                <mxCell id="r2tvkVw-2xmfGGPtcW46-7" value="&lt;b&gt;&lt;u&gt;pipe_executor.c&lt;/u&gt;&lt;/b&gt;&lt;br&gt;パイプを含むコマンドを実行&lt;br&gt;プロセス切り替えが必要であれば実施する&lt;br&gt;fork_and_exec_pipe_list" style="rounded=0;whiteSpace=wrap;html=1;align=left;" parent="r2tvkVw-2xmfGGPtcW46-1" vertex="1">
                    &#xa;                    &#xa;                    &#xa;                    &#xa;                    &#xa;                    &#xa;&#xa;&#xa;&#xa;&#xa;&#xa;
                    <mxGeometry x="210" y="350" width="250" height="90" as="geometry"/>
                    &#xa;                    &#xa;                    &#xa;                    &#xa;                    &#xa;                    &#xa;&#xa;&#xa;&#xa;&#xa;&#xa;
                </mxCell>
                &#xa;                &#xa;                &#xa;                &#xa;                &#xa;                &#xa;&#xa;&#xa;&#xa;&#xa;&#xa;
                <mxCell id="r2tvkVw-2xmfGGPtcW46-9" value="&lt;b&gt;&lt;u&gt;executor.c&lt;br&gt;&lt;/u&gt;&lt;/b&gt;1コマンドを実行&lt;br&gt;&amp;lt;リダイレクトがあれば入力fdを設定&lt;br&gt;&amp;gt;リダイレクトはinoutクラスに設定&lt;br&gt;$環境変数の文字列を置き換え&lt;br&gt;exec_command&lt;br&gt;sh_execute" style="rounded=0;whiteSpace=wrap;html=1;align=left;" parent="r2tvkVw-2xmfGGPtcW46-1" vertex="1">
                    &#xa;                    &#xa;                    &#xa;                    &#xa;                    &#xa;                    &#xa;&#xa;&#xa;&#xa;&#xa;&#xa;
                    <mxGeometry x="490" y="260" width="220" height="110" as="geometry"/>
                    &#xa;                    &#xa;                    &#xa;                    &#xa;                    &#xa;                    &#xa;&#xa;&#xa;&#xa;&#xa;&#xa;
                </mxCell>
                &#xa;                &#xa;                &#xa;                &#xa;                &#xa;                &#xa;&#xa;&#xa;&#xa;&#xa;&#xa;
                <mxCell id="r2tvkVw-2xmfGGPtcW46-11" value="" style="endArrow=classic;html=1;entryX=0;entryY=0.5;entryDx=0;entryDy=0;exitX=1;exitY=0.5;exitDx=0;exitDy=0;" parent="r2tvkVw-2xmfGGPtcW46-1" source="r2tvkVw-2xmfGGPtcW46-7" target="r2tvkVw-2xmfGGPtcW46-9" edge="1">
                    &#xa;                    &#xa;                    &#xa;                    &#xa;                    &#xa;                    &#xa;&#xa;&#xa;&#xa;&#xa;&#xa;
                    <mxGeometry width="50" height="50" relative="1" as="geometry">
                        &#xa;                        &#xa;                        &#xa;                        &#xa;                        &#xa;                        &#xa;&#xa;&#xa;&#xa;&#xa;&#xa;
                        <mxPoint x="380" y="335" as="sourcePoint"/>
                        &#xa;                        &#xa;                        &#xa;                        &#xa;                        &#xa;                        &#xa;&#xa;&#xa;&#xa;&#xa;&#xa;
                        <mxPoint x="320" y="260" as="targetPoint"/>
                        &#xa;                        &#xa;                        &#xa;                        &#xa;                        &#xa;                        &#xa;&#xa;&#xa;&#xa;&#xa;&#xa;
                    </mxGeometry>
                    &#xa;                    &#xa;                    &#xa;                    &#xa;                    &#xa;                    &#xa;&#xa;&#xa;&#xa;&#xa;&#xa;
                </mxCell>
                &#xa;                &#xa;                &#xa;                &#xa;                &#xa;                &#xa;&#xa;&#xa;&#xa;&#xa;&#xa;
                <mxCell id="r2tvkVw-2xmfGGPtcW46-12" value="&lt;b&gt;&lt;u&gt;builtin/&lt;/u&gt;&lt;/b&gt;&lt;br&gt;&lt;br&gt;exec_cd&lt;br&gt;exec_pwd&lt;br&gt;exec_env&lt;br&gt;exec_exit&lt;br&gt;exec_echo&lt;br&gt;exec_unset&lt;br&gt;exec_export&lt;br&gt;exec_execve" style="rounded=0;whiteSpace=wrap;html=1;align=left;" parent="r2tvkVw-2xmfGGPtcW46-1" vertex="1">
                    &#xa;                    &#xa;                    &#xa;                    &#xa;                    &#xa;                    &#xa;&#xa;&#xa;&#xa;&#xa;&#xa;
                    <mxGeometry x="740" y="230" width="100" height="170" as="geometry"/>
                    &#xa;                    &#xa;                    &#xa;                    &#xa;                    &#xa;                    &#xa;&#xa;&#xa;&#xa;&#xa;&#xa;
                </mxCell>
                &#xa;                &#xa;                &#xa;                &#xa;                &#xa;                &#xa;&#xa;&#xa;&#xa;&#xa;&#xa;
                <mxCell id="r2tvkVw-2xmfGGPtcW46-13" value="" style="endArrow=classic;html=1;entryX=0;entryY=0.5;entryDx=0;entryDy=0;exitX=1;exitY=0.5;exitDx=0;exitDy=0;" parent="r2tvkVw-2xmfGGPtcW46-1" source="r2tvkVw-2xmfGGPtcW46-9" target="r2tvkVw-2xmfGGPtcW46-12" edge="1">
                    &#xa;                    &#xa;                    &#xa;                    &#xa;                    &#xa;                    &#xa;&#xa;&#xa;&#xa;&#xa;&#xa;
                    <mxGeometry width="50" height="50" relative="1" as="geometry">
                        &#xa;                        &#xa;                        &#xa;                        &#xa;                        &#xa;                        &#xa;&#xa;&#xa;&#xa;&#xa;&#xa;
                        <mxPoint x="490" y="310" as="sourcePoint"/>
                        &#xa;                        &#xa;                        &#xa;                        &#xa;                        &#xa;                        &#xa;&#xa;&#xa;&#xa;&#xa;&#xa;
                        <mxPoint x="620" y="295" as="targetPoint"/>
                        &#xa;                        &#xa;                        &#xa;                        &#xa;                        &#xa;                        &#xa;&#xa;&#xa;&#xa;&#xa;&#xa;
                    </mxGeometry>
                    &#xa;                    &#xa;                    &#xa;                    &#xa;                    &#xa;                    &#xa;&#xa;&#xa;&#xa;&#xa;&#xa;
                </mxCell>
                &#xa;                &#xa;                &#xa;                &#xa;                &#xa;                &#xa;&#xa;&#xa;&#xa;&#xa;&#xa;
                <mxCell id="r2tvkVw-2xmfGGPtcW46-14" value="&lt;b&gt;&lt;u&gt;redirect.c&lt;/u&gt;&lt;/b&gt;&lt;br&gt;&lt;br&gt;&amp;lt;&amp;gt;リダイレクト入出力時の出力管理。" style="rounded=0;whiteSpace=wrap;html=1;align=left;" parent="r2tvkVw-2xmfGGPtcW46-1" vertex="1">
                    &#xa;                    &#xa;                    &#xa;                    &#xa;                    &#xa;                    &#xa;&#xa;&#xa;&#xa;&#xa;&#xa;
                    <mxGeometry x="492.5" y="460" width="215" height="80" as="geometry"/>
                    &#xa;                    &#xa;                    &#xa;                    &#xa;                    &#xa;                    &#xa;&#xa;&#xa;&#xa;&#xa;&#xa;
                </mxCell>
                &#xa;                &#xa;                &#xa;                &#xa;                &#xa;                &#xa;&#xa;&#xa;&#xa;&#xa;&#xa;
                <mxCell id="r2tvkVw-2xmfGGPtcW46-15" value="" style="endArrow=classic;html=1;exitX=0.5;exitY=1;exitDx=0;exitDy=0;entryX=0.5;entryY=0;entryDx=0;entryDy=0;" parent="r2tvkVw-2xmfGGPtcW46-1" source="r2tvkVw-2xmfGGPtcW46-9" target="r2tvkVw-2xmfGGPtcW46-14" edge="1">
                    &#xa;                    &#xa;                    &#xa;                    &#xa;                    &#xa;                    &#xa;&#xa;&#xa;&#xa;&#xa;&#xa;
                    <mxGeometry width="50" height="50" relative="1" as="geometry">
                        &#xa;                        &#xa;                        &#xa;                        &#xa;                        &#xa;                        &#xa;&#xa;&#xa;&#xa;&#xa;&#xa;
                        <mxPoint x="380" y="320" as="sourcePoint"/>
                        &#xa;                        &#xa;                        &#xa;                        &#xa;                        &#xa;                        &#xa;&#xa;&#xa;&#xa;&#xa;&#xa;
                        <mxPoint x="560" y="490" as="targetPoint"/>
                        &#xa;                        &#xa;                        &#xa;                        &#xa;                        &#xa;                        &#xa;&#xa;&#xa;&#xa;&#xa;&#xa;
                    </mxGeometry>
                    &#xa;                    &#xa;                    &#xa;                    &#xa;                    &#xa;                    &#xa;&#xa;&#xa;&#xa;&#xa;&#xa;
                </mxCell>
                &#xa;                &#xa;                &#xa;                &#xa;                &#xa;                &#xa;&#xa;&#xa;&#xa;&#xa;&#xa;
                <mxCell id="r2tvkVw-2xmfGGPtcW46-17" value="" style="endArrow=classic;html=1;entryX=1;entryY=0.5;entryDx=0;entryDy=0;exitX=0.5;exitY=0;exitDx=0;exitDy=0;" parent="r2tvkVw-2xmfGGPtcW46-1" source="r2tvkVw-2xmfGGPtcW46-12" target="r2tvkVw-2xmfGGPtcW46-18" edge="1">
                    &#xa;                    &#xa;                    &#xa;                    &#xa;                    &#xa;                    &#xa;&#xa;&#xa;&#xa;&#xa;&#xa;
                    <mxGeometry width="50" height="50" relative="1" as="geometry">
                        &#xa;                        &#xa;                        &#xa;                        &#xa;                        &#xa;                        &#xa;&#xa;&#xa;&#xa;&#xa;&#xa;
                        <mxPoint x="670" y="210" as="sourcePoint"/>
                        &#xa;                        &#xa;                        &#xa;                        &#xa;                        &#xa;                        &#xa;&#xa;&#xa;&#xa;&#xa;&#xa;
                        <mxPoint x="440" y="270" as="targetPoint"/>
                        &#xa;                        &#xa;                        &#xa;                        &#xa;                        &#xa;                        &#xa;&#xa;&#xa;&#xa;&#xa;&#xa;
                        <Array as="points">
                            &#xa;                            &#xa;                            &#xa;                            &#xa;                            &#xa;                            &#xa;&#xa;&#xa;&#xa;&#xa;&#xa;
                            <mxPoint x="700" y="110"/>
                            &#xa;                            &#xa;                            &#xa;                            &#xa;                            &#xa;                            &#xa;&#xa;&#xa;&#xa;&#xa;&#xa;
                        </Array>
                        &#xa;                        &#xa;                        &#xa;                        &#xa;                        &#xa;                        &#xa;&#xa;&#xa;&#xa;&#xa;&#xa;
                    </mxGeometry>
                    &#xa;                    &#xa;                    &#xa;                    &#xa;                    &#xa;                    &#xa;&#xa;&#xa;&#xa;&#xa;&#xa;
                </mxCell>
                &#xa;                &#xa;                &#xa;                &#xa;                &#xa;                &#xa;&#xa;&#xa;&#xa;&#xa;&#xa;
                <mxCell id="r2tvkVw-2xmfGGPtcW46-19" value="" style="edgeStyle=orthogonalEdgeStyle;rounded=0;orthogonalLoop=1;jettySize=auto;html=1;dashed=1;" parent="r2tvkVw-2xmfGGPtcW46-1" source="r2tvkVw-2xmfGGPtcW46-18" target="r2tvkVw-2xmfGGPtcW46-3" edge="1">
                    &#xa;                    &#xa;                    &#xa;                    &#xa;                    &#xa;                    &#xa;&#xa;&#xa;&#xa;&#xa;&#xa;
                    <mxGeometry relative="1" as="geometry"/>
                    &#xa;                    &#xa;                    &#xa;                    &#xa;                    &#xa;                    &#xa;&#xa;&#xa;&#xa;&#xa;&#xa;
                </mxCell>
                &#xa;                &#xa;                &#xa;                &#xa;                &#xa;                &#xa;&#xa;&#xa;&#xa;&#xa;&#xa;
                <mxCell id="r2tvkVw-2xmfGGPtcW46-18" value="&lt;b&gt;&lt;u&gt;env_list.c&lt;/u&gt;&lt;/b&gt;&lt;br&gt;&lt;br&gt;show_env_list&lt;br&gt;get_env_value&lt;br&gt;set_env_value&lt;br&gt;remove_env_key" style="whiteSpace=wrap;html=1;align=left;" parent="r2tvkVw-2xmfGGPtcW46-1" vertex="1">
                    &#xa;                    &#xa;                    &#xa;                    &#xa;                    &#xa;                    &#xa;&#xa;&#xa;&#xa;&#xa;&#xa;
                    <mxGeometry x="490" y="65" width="120" height="90" as="geometry"/>
                    &#xa;                    &#xa;                    &#xa;                    &#xa;                    &#xa;                    &#xa;&#xa;&#xa;&#xa;&#xa;&#xa;
                </mxCell>
                &#xa;                &#xa;                &#xa;                &#xa;                &#xa;                &#xa;&#xa;&#xa;&#xa;&#xa;&#xa;
                <mxCell id="r2tvkVw-2xmfGGPtcW46-20" value="&lt;b&gt;cmd_manager.c&lt;/b&gt;&lt;br&gt;; で区切られたコマンドを分割" style="rounded=0;whiteSpace=wrap;html=1;align=left;" parent="r2tvkVw-2xmfGGPtcW46-1" vertex="1">
                    &#xa;                    &#xa;                    &#xa;                    &#xa;                    &#xa;                    &#xa;&#xa;&#xa;&#xa;&#xa;&#xa;
                    <mxGeometry x="-10" y="270" width="160" height="90" as="geometry"/>
                    &#xa;                    &#xa;                    &#xa;                    &#xa;                    &#xa;                    &#xa;&#xa;&#xa;&#xa;&#xa;&#xa;
                </mxCell>
                &#xa;                &#xa;                &#xa;                &#xa;                &#xa;                &#xa;&#xa;&#xa;&#xa;&#xa;&#xa;
                <mxCell id="r2tvkVw-2xmfGGPtcW46-21" value="" style="endArrow=classic;html=1;exitX=0.431;exitY=0.981;exitDx=0;exitDy=0;exitPerimeter=0;entryX=0.5;entryY=0;entryDx=0;entryDy=0;" parent="r2tvkVw-2xmfGGPtcW46-1" source="r2tvkVw-2xmfGGPtcW46-2" target="r2tvkVw-2xmfGGPtcW46-20" edge="1">
                    &#xa;                    &#xa;                    &#xa;                    &#xa;                    &#xa;                    &#xa;&#xa;&#xa;&#xa;&#xa;&#xa;
                    <mxGeometry width="50" height="50" relative="1" as="geometry">
                        &#xa;                        &#xa;                        &#xa;                        &#xa;                        &#xa;                        &#xa;&#xa;&#xa;&#xa;&#xa;&#xa;
                        <mxPoint x="380" y="280" as="sourcePoint"/>
                        &#xa;                        &#xa;                        &#xa;                        &#xa;                        &#xa;                        &#xa;&#xa;&#xa;&#xa;&#xa;&#xa;
                        <mxPoint x="430" y="230" as="targetPoint"/>
                        &#xa;                        &#xa;                        &#xa;                        &#xa;                        &#xa;                        &#xa;&#xa;&#xa;&#xa;&#xa;&#xa;
                    </mxGeometry>
                    &#xa;                    &#xa;                    &#xa;                    &#xa;                    &#xa;                    &#xa;&#xa;&#xa;&#xa;&#xa;&#xa;
                </mxCell>
                &#xa;                &#xa;                &#xa;                &#xa;                &#xa;                &#xa;&#xa;&#xa;&#xa;&#xa;&#xa;
                <mxCell id="r2tvkVw-2xmfGGPtcW46-22" value="" style="endArrow=classic;html=1;exitX=1;exitY=0.5;exitDx=0;exitDy=0;entryX=0;entryY=0.5;entryDx=0;entryDy=0;" parent="r2tvkVw-2xmfGGPtcW46-1" source="r2tvkVw-2xmfGGPtcW46-20" target="r2tvkVw-2xmfGGPtcW46-7" edge="1">
                    &#xa;                    &#xa;                    &#xa;                    &#xa;                    &#xa;                    &#xa;&#xa;&#xa;&#xa;&#xa;&#xa;
                    <mxGeometry width="50" height="50" relative="1" as="geometry">
                        &#xa;                        &#xa;                        &#xa;                        &#xa;                        &#xa;                        &#xa;&#xa;&#xa;&#xa;&#xa;&#xa;
                        <mxPoint x="380" y="280" as="sourcePoint"/>
                        &#xa;                        &#xa;                        &#xa;                        &#xa;                        &#xa;                        &#xa;&#xa;&#xa;&#xa;&#xa;&#xa;
                        <mxPoint x="260" y="295" as="targetPoint"/>
                        &#xa;                        &#xa;                        &#xa;                        &#xa;                        &#xa;                        &#xa;&#xa;&#xa;&#xa;&#xa;&#xa;
                    </mxGeometry>
                    &#xa;                    &#xa;                    &#xa;                    &#xa;                    &#xa;                    &#xa;&#xa;&#xa;&#xa;&#xa;&#xa;
                </mxCell>
                &#xa;                &#xa;                &#xa;                &#xa;                &#xa;                &#xa;&#xa;&#xa;&#xa;&#xa;&#xa;
                <mxCell id="VfFrvq1JFTsaKGjjTuTI-0" value="&lt;b&gt;&lt;u&gt;history.c(未実装)&lt;/u&gt;&lt;/b&gt;&lt;br&gt;&lt;br&gt;ユーザー入力の文字列を保持。" style="rounded=0;whiteSpace=wrap;html=1;align=left;" parent="r2tvkVw-2xmfGGPtcW46-1" vertex="1">
                    &#xa;                    &#xa;                    &#xa;                    &#xa;                    &#xa;                    &#xa;&#xa;&#xa;&#xa;&#xa;&#xa;
                    <mxGeometry x="170" y="20" width="120" height="60" as="geometry"/>
                    &#xa;                    &#xa;                    &#xa;                    &#xa;                    &#xa;                    &#xa;&#xa;&#xa;&#xa;&#xa;&#xa;
                </mxCell>
                &#xa;                &#xa;                &#xa;                &#xa;                &#xa;                &#xa;&#xa;&#xa;&#xa;&#xa;&#xa;
                <mxCell id="VfFrvq1JFTsaKGjjTuTI-2" value="" style="endArrow=classic;html=1;entryX=0;entryY=0.5;entryDx=0;entryDy=0;exitX=0.75;exitY=0;exitDx=0;exitDy=0;" parent="r2tvkVw-2xmfGGPtcW46-1" source="r2tvkVw-2xmfGGPtcW46-2" target="VfFrvq1JFTsaKGjjTuTI-0" edge="1">
                    &#xa;                    &#xa;                    &#xa;                    &#xa;                    &#xa;                    &#xa;&#xa;&#xa;&#xa;&#xa;&#xa;
                    <mxGeometry width="50" height="50" relative="1" as="geometry">
                        &#xa;                        &#xa;                        &#xa;                        &#xa;                        &#xa;                        &#xa;&#xa;&#xa;&#xa;&#xa;&#xa;
                        <mxPoint x="380" y="300" as="sourcePoint"/>
                        &#xa;                        &#xa;                        &#xa;                        &#xa;                        &#xa;                        &#xa;&#xa;&#xa;&#xa;&#xa;&#xa;
                        <mxPoint x="430" y="250" as="targetPoint"/>
                        &#xa;                        &#xa;                        &#xa;                        &#xa;                        &#xa;                        &#xa;&#xa;&#xa;&#xa;&#xa;&#xa;
                    </mxGeometry>
                    &#xa;                    &#xa;                    &#xa;                    &#xa;                    &#xa;                    &#xa;&#xa;&#xa;&#xa;&#xa;&#xa;
                </mxCell>
                &#xa;                &#xa;                &#xa;                &#xa;                &#xa;                &#xa;&#xa;&#xa;&#xa;&#xa;&#xa;
                <mxCell id="Klx2ig03IkIaDSA5ljZO-1" value="" style="endArrow=classic;html=1;exitX=1;exitY=0.5;exitDx=0;exitDy=0;entryX=0;entryY=0.5;entryDx=0;entryDy=0;" parent="r2tvkVw-2xmfGGPtcW46-1" source="r2tvkVw-2xmfGGPtcW46-20" target="r2tvkVw-2xmfGGPtcW46-9" edge="1">
                    &#xa;                    &#xa;                    &#xa;                    &#xa;                    &#xa;                    &#xa;&#xa;&#xa;&#xa;&#xa;&#xa;
                    <mxGeometry width="50" height="50" relative="1" as="geometry">
                        &#xa;                        &#xa;                        &#xa;                        &#xa;                        &#xa;                        &#xa;&#xa;&#xa;&#xa;&#xa;&#xa;
                        <mxPoint x="150" y="320" as="sourcePoint"/>
                        &#xa;                        &#xa;                        &#xa;                        &#xa;                        &#xa;                        &#xa;&#xa;&#xa;&#xa;&#xa;&#xa;
                        <mxPoint x="500" y="320" as="targetPoint"/>
                        &#xa;                        &#xa;                        &#xa;                        &#xa;                        &#xa;                        &#xa;&#xa;&#xa;&#xa;&#xa;&#xa;
                    </mxGeometry>
                    &#xa;                    &#xa;                    &#xa;                    &#xa;                    &#xa;                    &#xa;&#xa;&#xa;&#xa;&#xa;&#xa;
                </mxCell>
                &#xa;                &#xa;                &#xa;                &#xa;                &#xa;                &#xa;&#xa;&#xa;&#xa;&#xa;&#xa;
            </root>
            &#xa;            &#xa;            &#xa;            &#xa;            &#xa;            &#xa;&#xa;&#xa;&#xa;&#xa;&#xa;
        </mxGraphModel>
        &#xa;        &#xa;        &#xa;        &#xa;        &#xa;        &#xa;&#xa;&#xa;&#xa;&#xa;&#xa;
    </diagram>
    <diagram name="クラス図" id="i73-61EN61rzCsJCjk9D">
        &#xa;        &#xa;        &#xa;        &#xa;&#xa;&#xa;&#xa;
        <mxGraphModel dx="1835" dy="660" grid="1" gridSize="10" guides="1" tooltips="1" connect="1" arrows="1" fold="1" page="1" pageScale="1" pageWidth="827" pageHeight="1169" math="0" shadow="0">
            &#xa;            &#xa;            &#xa;            &#xa;&#xa;&#xa;&#xa;
            <root>
                &#xa;                &#xa;                &#xa;                &#xa;&#xa;&#xa;&#xa;
                <mxCell id="8KgetkwTrycqwG3ILRqe-0"/>
                &#xa;                &#xa;                &#xa;                &#xa;&#xa;&#xa;&#xa;
                <mxCell id="8KgetkwTrycqwG3ILRqe-1" parent="8KgetkwTrycqwG3ILRqe-0"/>
                &#xa;                &#xa;                &#xa;                &#xa;&#xa;&#xa;&#xa;
                <mxCell id="8KgetkwTrycqwG3ILRqe-2" value="&lt;b&gt;&lt;u&gt;prompt.c&lt;/u&gt;&lt;/b&gt;&lt;br&gt;標準入力から文字列を受け取る&lt;br&gt;&lt;br&gt;input_prompt" style="rounded=0;whiteSpace=wrap;html=1;align=left;" parent="8KgetkwTrycqwG3ILRqe-1" vertex="1">
                    &#xa;                    &#xa;                    &#xa;                    &#xa;&#xa;&#xa;&#xa;
                    <mxGeometry x="-770" y="145" width="140" height="95" as="geometry"/>
                    &#xa;                    &#xa;                    &#xa;                    &#xa;&#xa;&#xa;&#xa;
                </mxCell>
                &#xa;                &#xa;                &#xa;                &#xa;&#xa;&#xa;&#xa;
                <mxCell id="8KgetkwTrycqwG3ILRqe-3" value="&lt;b&gt;&lt;u&gt;env_list_base.c&lt;/u&gt;&lt;/b&gt;&lt;br&gt;&lt;br&gt;initialize_env_list&lt;br&gt;finalize_env_list" style="rounded=0;whiteSpace=wrap;html=1;align=left;" parent="8KgetkwTrycqwG3ILRqe-1" vertex="1">
                    &#xa;                    &#xa;                    &#xa;                    &#xa;&#xa;&#xa;&#xa;
                    <mxGeometry x="-440" y="90" width="120" height="110" as="geometry"/>
                    &#xa;                    &#xa;                    &#xa;                    &#xa;&#xa;&#xa;&#xa;
                </mxCell>
                &#xa;                &#xa;                &#xa;                &#xa;&#xa;&#xa;&#xa;
                <mxCell id="8KgetkwTrycqwG3ILRqe-4" value="main.c" style="rounded=0;whiteSpace=wrap;html=1;align=left;" parent="8KgetkwTrycqwG3ILRqe-1" vertex="1">
                    &#xa;                    &#xa;                    &#xa;                    &#xa;&#xa;&#xa;&#xa;
                    <mxGeometry x="-760" y="50" width="120" height="40" as="geometry"/>
                    &#xa;                    &#xa;                    &#xa;                    &#xa;&#xa;&#xa;&#xa;
                </mxCell>
                &#xa;                &#xa;                &#xa;                &#xa;&#xa;&#xa;&#xa;
                <mxCell id="8KgetkwTrycqwG3ILRqe-5" value="" style="endArrow=classic;html=1;exitX=0.5;exitY=1;exitDx=0;exitDy=0;entryX=0.5;entryY=0;entryDx=0;entryDy=0;" parent="8KgetkwTrycqwG3ILRqe-1" source="8KgetkwTrycqwG3ILRqe-4" target="8KgetkwTrycqwG3ILRqe-2" edge="1">
                    &#xa;                    &#xa;                    &#xa;                    &#xa;&#xa;&#xa;&#xa;
                    <mxGeometry width="50" height="50" relative="1" as="geometry">
                        &#xa;                        &#xa;                        &#xa;                        &#xa;&#xa;&#xa;&#xa;
                        <mxPoint x="-510" y="310" as="sourcePoint"/>
                        &#xa;                        &#xa;                        &#xa;                        &#xa;&#xa;&#xa;&#xa;
                        <mxPoint x="-460" y="260" as="targetPoint"/>
                        &#xa;                        &#xa;                        &#xa;                        &#xa;&#xa;&#xa;&#xa;
                    </mxGeometry>
                    &#xa;                    &#xa;                    &#xa;                    &#xa;&#xa;&#xa;&#xa;
                </mxCell>
                &#xa;                &#xa;                &#xa;                &#xa;&#xa;&#xa;&#xa;
                <mxCell id="8KgetkwTrycqwG3ILRqe-6" value="" style="endArrow=classic;html=1;exitX=1;exitY=0.5;exitDx=0;exitDy=0;entryX=0;entryY=0.5;entryDx=0;entryDy=0;" parent="8KgetkwTrycqwG3ILRqe-1" source="8KgetkwTrycqwG3ILRqe-2" target="KS0nC8R6Lkx8q-FrjuPW-1" edge="1">
                    &#xa;                    &#xa;                    &#xa;                    &#xa;&#xa;&#xa;&#xa;
                    <mxGeometry width="50" height="50" relative="1" as="geometry">
                        &#xa;                        &#xa;                        &#xa;                        &#xa;&#xa;&#xa;&#xa;
                        <mxPoint x="-510" y="310" as="sourcePoint"/>
                        &#xa;                        &#xa;                        &#xa;                        &#xa;&#xa;&#xa;&#xa;
                        <mxPoint x="-460" y="260" as="targetPoint"/>
                        &#xa;                        &#xa;                        &#xa;                        &#xa;&#xa;&#xa;&#xa;
                    </mxGeometry>
                    &#xa;                    &#xa;                    &#xa;                    &#xa;&#xa;&#xa;&#xa;
                </mxCell>
                &#xa;                &#xa;                &#xa;                &#xa;&#xa;&#xa;&#xa;
                <mxCell id="8KgetkwTrycqwG3ILRqe-7" value="&lt;b&gt;&lt;u&gt;pipe_executor.c&lt;/u&gt;&lt;/b&gt;&lt;br&gt;パイプを含むコマンドを実行。&lt;br&gt;プロセス切り替えと標準入出力の繋ぎ替え&lt;br&gt;&lt;br&gt;fork_exec_commands" style="rounded=0;whiteSpace=wrap;html=1;align=left;" parent="8KgetkwTrycqwG3ILRqe-1" vertex="1">
                    &#xa;                    &#xa;                    &#xa;                    &#xa;&#xa;&#xa;&#xa;
                    <mxGeometry x="-570" y="390" width="210" height="90" as="geometry"/>
                    &#xa;                    &#xa;                    &#xa;                    &#xa;&#xa;&#xa;&#xa;
                </mxCell>
                &#xa;                &#xa;                &#xa;                &#xa;&#xa;&#xa;&#xa;
                <mxCell id="8KgetkwTrycqwG3ILRqe-8" value="&lt;b&gt;&lt;u&gt;executor.c&lt;br&gt;&lt;/u&gt;&lt;/b&gt;1コマンドを実行&lt;br&gt;&lt;br&gt;exec_command" style="rounded=0;whiteSpace=wrap;html=1;align=left;" parent="8KgetkwTrycqwG3ILRqe-1" vertex="1">
                    &#xa;                    &#xa;                    &#xa;                    &#xa;&#xa;&#xa;&#xa;
                    <mxGeometry x="-230" y="300" width="160" height="110" as="geometry"/>
                    &#xa;                    &#xa;                    &#xa;                    &#xa;&#xa;&#xa;&#xa;
                </mxCell>
                &#xa;                &#xa;                &#xa;                &#xa;&#xa;&#xa;&#xa;
                <mxCell id="8KgetkwTrycqwG3ILRqe-9" value="" style="endArrow=classic;html=1;entryX=0;entryY=0.5;entryDx=0;entryDy=0;exitX=1;exitY=0.5;exitDx=0;exitDy=0;" parent="8KgetkwTrycqwG3ILRqe-1" source="8KgetkwTrycqwG3ILRqe-7" target="8KgetkwTrycqwG3ILRqe-8" edge="1">
                    &#xa;                    &#xa;                    &#xa;                    &#xa;&#xa;&#xa;&#xa;
                    <mxGeometry width="50" height="50" relative="1" as="geometry">
                        &#xa;                        &#xa;                        &#xa;                        &#xa;&#xa;&#xa;&#xa;
                        <mxPoint x="-400" y="375" as="sourcePoint"/>
                        &#xa;                        &#xa;                        &#xa;                        &#xa;&#xa;&#xa;&#xa;
                        <mxPoint x="-460" y="300" as="targetPoint"/>
                        &#xa;                        &#xa;                        &#xa;                        &#xa;&#xa;&#xa;&#xa;
                    </mxGeometry>
                    &#xa;                    &#xa;                    &#xa;                    &#xa;&#xa;&#xa;&#xa;
                </mxCell>
                &#xa;                &#xa;                &#xa;                &#xa;&#xa;&#xa;&#xa;
                <mxCell id="8KgetkwTrycqwG3ILRqe-10" value="&lt;b&gt;&lt;u&gt;builtin/&lt;/u&gt;&lt;/b&gt;&lt;br&gt;&lt;br&gt;exec_cd&lt;br&gt;exec_pwd&lt;br&gt;exec_env&lt;br&gt;exec_exit&lt;br&gt;exec_echo&lt;br&gt;exec_unset&lt;br&gt;exec_export&lt;br&gt;exec_execve" style="rounded=0;whiteSpace=wrap;html=1;align=left;" parent="8KgetkwTrycqwG3ILRqe-1" vertex="1">
                    &#xa;                    &#xa;                    &#xa;                    &#xa;&#xa;&#xa;&#xa;
                    <mxGeometry x="-40" y="270" width="100" height="170" as="geometry"/>
                    &#xa;                    &#xa;                    &#xa;                    &#xa;&#xa;&#xa;&#xa;
                </mxCell>
                &#xa;                &#xa;                &#xa;                &#xa;&#xa;&#xa;&#xa;
                <mxCell id="8KgetkwTrycqwG3ILRqe-11" value="" style="endArrow=classic;html=1;entryX=0;entryY=0.5;entryDx=0;entryDy=0;exitX=1;exitY=0.5;exitDx=0;exitDy=0;" parent="8KgetkwTrycqwG3ILRqe-1" source="8KgetkwTrycqwG3ILRqe-8" target="8KgetkwTrycqwG3ILRqe-10" edge="1">
                    &#xa;                    &#xa;                    &#xa;                    &#xa;&#xa;&#xa;&#xa;
                    <mxGeometry width="50" height="50" relative="1" as="geometry">
                        &#xa;                        &#xa;                        &#xa;                        &#xa;&#xa;&#xa;&#xa;
                        <mxPoint x="-290" y="350" as="sourcePoint"/>
                        &#xa;                        &#xa;                        &#xa;                        &#xa;&#xa;&#xa;&#xa;
                        <mxPoint x="-160" y="335" as="targetPoint"/>
                        &#xa;                        &#xa;                        &#xa;                        &#xa;&#xa;&#xa;&#xa;
                    </mxGeometry>
                    &#xa;                    &#xa;                    &#xa;                    &#xa;&#xa;&#xa;&#xa;
                </mxCell>
                &#xa;                &#xa;                &#xa;                &#xa;&#xa;&#xa;&#xa;
                <mxCell id="8KgetkwTrycqwG3ILRqe-12" value="&lt;b&gt;&lt;u&gt;redirect.c&lt;/u&gt;&lt;/b&gt;&lt;br&gt;リダイレクト入出力の設定&lt;br&gt;&lt;br&gt;init_redirect_fd&lt;br&gt;separate_redirect_word&lt;br&gt;set_redirect&lt;br&gt;undo_redirect_fd" style="rounded=0;whiteSpace=wrap;html=1;align=left;" parent="8KgetkwTrycqwG3ILRqe-1" vertex="1">
                    &#xa;                    &#xa;                    &#xa;                    &#xa;&#xa;&#xa;&#xa;
                    <mxGeometry x="-257.5" y="465" width="215" height="120" as="geometry"/>
                    &#xa;                    &#xa;                    &#xa;                    &#xa;&#xa;&#xa;&#xa;
                </mxCell>
                &#xa;                &#xa;                &#xa;                &#xa;&#xa;&#xa;&#xa;
                <mxCell id="8KgetkwTrycqwG3ILRqe-13" value="" style="endArrow=classic;html=1;exitX=0.5;exitY=1;exitDx=0;exitDy=0;entryX=0.5;entryY=0;entryDx=0;entryDy=0;" parent="8KgetkwTrycqwG3ILRqe-1" source="8KgetkwTrycqwG3ILRqe-8" target="8KgetkwTrycqwG3ILRqe-12" edge="1">
                    &#xa;                    &#xa;                    &#xa;                    &#xa;&#xa;&#xa;&#xa;
                    <mxGeometry width="50" height="50" relative="1" as="geometry">
                        &#xa;                        &#xa;                        &#xa;                        &#xa;&#xa;&#xa;&#xa;
                        <mxPoint x="-400" y="360" as="sourcePoint"/>
                        &#xa;                        &#xa;                        &#xa;                        &#xa;&#xa;&#xa;&#xa;
                        <mxPoint x="-220" y="530" as="targetPoint"/>
                        &#xa;                        &#xa;                        &#xa;                        &#xa;&#xa;&#xa;&#xa;
                    </mxGeometry>
                    &#xa;                    &#xa;                    &#xa;                    &#xa;&#xa;&#xa;&#xa;
                </mxCell>
                &#xa;                &#xa;                &#xa;                &#xa;&#xa;&#xa;&#xa;
                <mxCell id="8KgetkwTrycqwG3ILRqe-14" value="" style="endArrow=classic;html=1;entryX=1;entryY=0.5;entryDx=0;entryDy=0;exitX=0.5;exitY=0;exitDx=0;exitDy=0;" parent="8KgetkwTrycqwG3ILRqe-1" source="8KgetkwTrycqwG3ILRqe-10" target="8KgetkwTrycqwG3ILRqe-16" edge="1">
                    &#xa;                    &#xa;                    &#xa;                    &#xa;&#xa;&#xa;&#xa;
                    <mxGeometry width="50" height="50" relative="1" as="geometry">
                        &#xa;                        &#xa;                        &#xa;                        &#xa;&#xa;&#xa;&#xa;
                        <mxPoint x="-110" y="250" as="sourcePoint"/>
                        &#xa;                        &#xa;                        &#xa;                        &#xa;&#xa;&#xa;&#xa;
                        <mxPoint x="-340" y="310" as="targetPoint"/>
                        &#xa;                        &#xa;                        &#xa;                        &#xa;&#xa;&#xa;&#xa;
                        <Array as="points">
                            &#xa;                            &#xa;                            &#xa;                            &#xa;&#xa;&#xa;&#xa;
                            <mxPoint x="-80" y="150"/>
                            &#xa;                            &#xa;                            &#xa;                            &#xa;&#xa;&#xa;&#xa;
                        </Array>
                        &#xa;                        &#xa;                        &#xa;                        &#xa;&#xa;&#xa;&#xa;
                    </mxGeometry>
                    &#xa;                    &#xa;                    &#xa;                    &#xa;&#xa;&#xa;&#xa;
                </mxCell>
                &#xa;                &#xa;                &#xa;                &#xa;&#xa;&#xa;&#xa;
                <mxCell id="8KgetkwTrycqwG3ILRqe-15" value="" style="edgeStyle=orthogonalEdgeStyle;rounded=0;orthogonalLoop=1;jettySize=auto;html=1;dashed=1;" parent="8KgetkwTrycqwG3ILRqe-1" source="8KgetkwTrycqwG3ILRqe-16" target="8KgetkwTrycqwG3ILRqe-3" edge="1">
                    &#xa;                    &#xa;                    &#xa;                    &#xa;&#xa;&#xa;&#xa;
                    <mxGeometry relative="1" as="geometry"/>
                    &#xa;                    &#xa;                    &#xa;                    &#xa;&#xa;&#xa;&#xa;
                </mxCell>
                &#xa;                &#xa;                &#xa;                &#xa;&#xa;&#xa;&#xa;
                <mxCell id="8KgetkwTrycqwG3ILRqe-16" value="&lt;b&gt;&lt;u&gt;env_list.c&lt;/u&gt;&lt;/b&gt;&lt;br&gt;&lt;br&gt;show_env_list&lt;br&gt;get_env_value&lt;br&gt;set_env_value&lt;br&gt;remove_env_key" style="whiteSpace=wrap;html=1;align=left;" parent="8KgetkwTrycqwG3ILRqe-1" vertex="1">
                    &#xa;                    &#xa;                    &#xa;                    &#xa;&#xa;&#xa;&#xa;
                    <mxGeometry x="-270" y="100" width="120" height="90" as="geometry"/>
                    &#xa;                    &#xa;                    &#xa;                    &#xa;&#xa;&#xa;&#xa;
                </mxCell>
                &#xa;                &#xa;                &#xa;                &#xa;&#xa;&#xa;&#xa;
                <mxCell id="8KgetkwTrycqwG3ILRqe-17" value="&lt;b&gt;&lt;u&gt;cmd_manager.c&lt;/u&gt;&lt;/b&gt;&lt;br&gt;入力コマンドを ; で分割して実行&lt;br&gt;&lt;br&gt;exec_one_line" style="rounded=0;whiteSpace=wrap;html=1;align=left;" parent="8KgetkwTrycqwG3ILRqe-1" vertex="1">
                    &#xa;                    &#xa;                    &#xa;                    &#xa;&#xa;&#xa;&#xa;
                    <mxGeometry x="-790" y="310" width="160" height="90" as="geometry"/>
                    &#xa;                    &#xa;                    &#xa;                    &#xa;&#xa;&#xa;&#xa;
                </mxCell>
                &#xa;                &#xa;                &#xa;                &#xa;&#xa;&#xa;&#xa;
                <mxCell id="8KgetkwTrycqwG3ILRqe-18" value="" style="endArrow=classic;html=1;exitX=0.431;exitY=0.981;exitDx=0;exitDy=0;exitPerimeter=0;entryX=0.5;entryY=0;entryDx=0;entryDy=0;" parent="8KgetkwTrycqwG3ILRqe-1" source="8KgetkwTrycqwG3ILRqe-2" target="8KgetkwTrycqwG3ILRqe-17" edge="1">
                    &#xa;                    &#xa;                    &#xa;                    &#xa;&#xa;&#xa;&#xa;
                    <mxGeometry width="50" height="50" relative="1" as="geometry">
                        &#xa;                        &#xa;                        &#xa;                        &#xa;&#xa;&#xa;&#xa;
                        <mxPoint x="-400" y="320" as="sourcePoint"/>
                        &#xa;                        &#xa;                        &#xa;                        &#xa;&#xa;&#xa;&#xa;
                        <mxPoint x="-350" y="270" as="targetPoint"/>
                        &#xa;                        &#xa;                        &#xa;                        &#xa;&#xa;&#xa;&#xa;
                    </mxGeometry>
                    &#xa;                    &#xa;                    &#xa;                    &#xa;&#xa;&#xa;&#xa;
                </mxCell>
                &#xa;                &#xa;                &#xa;                &#xa;&#xa;&#xa;&#xa;
                <mxCell id="8KgetkwTrycqwG3ILRqe-19" value="" style="endArrow=classic;html=1;exitX=1;exitY=0.5;exitDx=0;exitDy=0;entryX=0;entryY=0.5;entryDx=0;entryDy=0;" parent="8KgetkwTrycqwG3ILRqe-1" source="8KgetkwTrycqwG3ILRqe-17" target="8KgetkwTrycqwG3ILRqe-7" edge="1">
                    &#xa;                    &#xa;                    &#xa;                    &#xa;&#xa;&#xa;&#xa;
                    <mxGeometry width="50" height="50" relative="1" as="geometry">
                        &#xa;                        &#xa;                        &#xa;                        &#xa;&#xa;&#xa;&#xa;
                        <mxPoint x="-400" y="320" as="sourcePoint"/>
                        &#xa;                        &#xa;                        &#xa;                        &#xa;&#xa;&#xa;&#xa;
                        <mxPoint x="-520" y="335" as="targetPoint"/>
                        &#xa;                        &#xa;                        &#xa;                        &#xa;&#xa;&#xa;&#xa;
                    </mxGeometry>
                    &#xa;                    &#xa;                    &#xa;                    &#xa;&#xa;&#xa;&#xa;
                </mxCell>
                &#xa;                &#xa;                &#xa;                &#xa;&#xa;&#xa;&#xa;
                <mxCell id="8KgetkwTrycqwG3ILRqe-22" value="" style="endArrow=classic;html=1;exitX=1;exitY=0.5;exitDx=0;exitDy=0;entryX=0;entryY=0.5;entryDx=0;entryDy=0;" parent="8KgetkwTrycqwG3ILRqe-1" source="8KgetkwTrycqwG3ILRqe-17" target="8KgetkwTrycqwG3ILRqe-8" edge="1">
                    &#xa;                    &#xa;                    &#xa;                    &#xa;&#xa;&#xa;&#xa;
                    <mxGeometry width="50" height="50" relative="1" as="geometry">
                        &#xa;                        &#xa;                        &#xa;                        &#xa;&#xa;&#xa;&#xa;
                        <mxPoint x="-630" y="360" as="sourcePoint"/>
                        &#xa;                        &#xa;                        &#xa;                        &#xa;&#xa;&#xa;&#xa;
                        <mxPoint x="-280" y="360" as="targetPoint"/>
                        &#xa;                        &#xa;                        &#xa;                        &#xa;&#xa;&#xa;&#xa;
                    </mxGeometry>
                    &#xa;                    &#xa;                    &#xa;                    &#xa;&#xa;&#xa;&#xa;
                </mxCell>
                &#xa;                &#xa;                &#xa;                &#xa;&#xa;&#xa;&#xa;
                <mxCell id="KS0nC8R6Lkx8q-FrjuPW-0" value="" style="endArrow=classic;html=1;exitX=0.75;exitY=1;exitDx=0;exitDy=0;entryX=0;entryY=0.5;entryDx=0;entryDy=0;" parent="8KgetkwTrycqwG3ILRqe-1" source="8KgetkwTrycqwG3ILRqe-4" target="8KgetkwTrycqwG3ILRqe-3" edge="1">
                    &#xa;                    &#xa;                    &#xa;                    &#xa;&#xa;&#xa;&#xa;
                    <mxGeometry width="50" height="50" relative="1" as="geometry">
                        &#xa;                        &#xa;                        &#xa;                        &#xa;&#xa;&#xa;&#xa;
                        <mxPoint x="-490" y="330" as="sourcePoint"/>
                        &#xa;                        &#xa;                        &#xa;                        &#xa;&#xa;&#xa;&#xa;
                        <mxPoint x="-440" y="280" as="targetPoint"/>
                        &#xa;                        &#xa;                        &#xa;                        &#xa;&#xa;&#xa;&#xa;
                    </mxGeometry>
                    &#xa;                    &#xa;                    &#xa;                    &#xa;&#xa;&#xa;&#xa;
                </mxCell>
                &#xa;                &#xa;                &#xa;                &#xa;&#xa;&#xa;&#xa;
                <mxCell id="KS0nC8R6Lkx8q-FrjuPW-1" value="&lt;u&gt;&lt;b&gt;utils_env_params.c&lt;/b&gt;&lt;/u&gt;&lt;br&gt;&lt;br&gt;&lt;div style=&quot;text-align: left&quot;&gt;replace_env_param&lt;/div&gt;" style="whiteSpace=wrap;html=1;" parent="8KgetkwTrycqwG3ILRqe-1" vertex="1">
                    &#xa;                    &#xa;                    &#xa;                    &#xa;&#xa;&#xa;&#xa;
                    <mxGeometry x="-590" y="170" width="120" height="60" as="geometry"/>
                    &#xa;                    &#xa;                    &#xa;                    &#xa;&#xa;&#xa;&#xa;
                </mxCell>
                &#xa;                &#xa;                &#xa;                &#xa;&#xa;&#xa;&#xa;
                <mxCell id="KS0nC8R6Lkx8q-FrjuPW-2" value="" style="endArrow=classic;html=1;entryX=0;entryY=0.5;entryDx=0;entryDy=0;exitX=1;exitY=0.5;exitDx=0;exitDy=0;" parent="8KgetkwTrycqwG3ILRqe-1" source="KS0nC8R6Lkx8q-FrjuPW-1" target="8KgetkwTrycqwG3ILRqe-3" edge="1">
                    &#xa;                    &#xa;                    &#xa;                    &#xa;&#xa;&#xa;&#xa;
                    <mxGeometry width="50" height="50" relative="1" as="geometry">
                        &#xa;                        &#xa;                        &#xa;                        &#xa;&#xa;&#xa;&#xa;
                        <mxPoint x="-490" y="330" as="sourcePoint"/>
                        &#xa;                        &#xa;                        &#xa;                        &#xa;&#xa;&#xa;&#xa;
                        <mxPoint x="-440" y="280" as="targetPoint"/>
                        &#xa;                        &#xa;                        &#xa;                        &#xa;&#xa;&#xa;&#xa;
                    </mxGeometry>
                    &#xa;                    &#xa;                    &#xa;                    &#xa;&#xa;&#xa;&#xa;
                </mxCell>
                &#xa;                &#xa;                &#xa;                &#xa;&#xa;&#xa;&#xa;
            </root>
            &#xa;            &#xa;            &#xa;            &#xa;&#xa;&#xa;&#xa;
        </mxGraphModel>
        &#xa;        &#xa;        &#xa;        &#xa;&#xa;&#xa;&#xa;
    </diagram>
    <diagram id="t8wC5JgzNi4ydfxrSusW" name="モジュール関連図">
        <mxGraphModel dx="996" dy="699" grid="1" gridSize="10" guides="1" tooltips="1" connect="1" arrows="1" fold="1" page="1" pageScale="1" pageWidth="850" pageHeight="1100" math="0" shadow="0">
            <root>
                <mxCell id="ynCTALOJu3DHQOz7-C7g-0"/>
                <mxCell id="ynCTALOJu3DHQOz7-C7g-1" parent="ynCTALOJu3DHQOz7-C7g-0"/>
                <mxCell id="ynCTALOJu3DHQOz7-C7g-12" value="" style="edgeStyle=orthogonalEdgeStyle;rounded=0;orthogonalLoop=1;jettySize=auto;html=1;" parent="ynCTALOJu3DHQOz7-C7g-1" source="ynCTALOJu3DHQOz7-C7g-2" target="ynCTALOJu3DHQOz7-C7g-3" edge="1">
                    <mxGeometry relative="1" as="geometry"/>
                </mxCell>
                <mxCell id="ynCTALOJu3DHQOz7-C7g-2" value="main" style="rounded=0;whiteSpace=wrap;html=1;" parent="ynCTALOJu3DHQOz7-C7g-1" vertex="1">
                    <mxGeometry x="40" y="400" width="70" height="40" as="geometry"/>
                </mxCell>
                <mxCell id="ynCTALOJu3DHQOz7-C7g-13" value="" style="edgeStyle=orthogonalEdgeStyle;rounded=0;orthogonalLoop=1;jettySize=auto;html=1;" parent="ynCTALOJu3DHQOz7-C7g-1" source="ynCTALOJu3DHQOz7-C7g-3" target="ynCTALOJu3DHQOz7-C7g-4" edge="1">
                    <mxGeometry relative="1" as="geometry"/>
                </mxCell>
                <mxCell id="ynCTALOJu3DHQOz7-C7g-3" value="prompt" style="rounded=0;whiteSpace=wrap;html=1;" parent="ynCTALOJu3DHQOz7-C7g-1" vertex="1">
                    <mxGeometry x="190" y="400" width="80" height="40" as="geometry"/>
                </mxCell>
                <mxCell id="ynCTALOJu3DHQOz7-C7g-14" value="" style="edgeStyle=orthogonalEdgeStyle;rounded=0;orthogonalLoop=1;jettySize=auto;html=1;" parent="ynCTALOJu3DHQOz7-C7g-1" source="ynCTALOJu3DHQOz7-C7g-4" target="ynCTALOJu3DHQOz7-C7g-5" edge="1">
                    <mxGeometry relative="1" as="geometry"/>
                </mxCell>
                <mxCell id="ynCTALOJu3DHQOz7-C7g-4" value="cmd_manager" style="rounded=0;whiteSpace=wrap;html=1;" parent="ynCTALOJu3DHQOz7-C7g-1" vertex="1">
                    <mxGeometry x="300" y="400" width="100" height="40" as="geometry"/>
                </mxCell>
                <mxCell id="ynCTALOJu3DHQOz7-C7g-15" value="" style="edgeStyle=orthogonalEdgeStyle;rounded=0;orthogonalLoop=1;jettySize=auto;html=1;" parent="ynCTALOJu3DHQOz7-C7g-1" source="ynCTALOJu3DHQOz7-C7g-5" target="ynCTALOJu3DHQOz7-C7g-6" edge="1">
                    <mxGeometry relative="1" as="geometry"/>
                </mxCell>
                <mxCell id="ynCTALOJu3DHQOz7-C7g-5" value="pipe_executor" style="rounded=0;whiteSpace=wrap;html=1;" parent="ynCTALOJu3DHQOz7-C7g-1" vertex="1">
                    <mxGeometry x="430" y="400" width="95" height="40" as="geometry"/>
                </mxCell>
                <mxCell id="ynCTALOJu3DHQOz7-C7g-6" value="executor" style="rounded=0;whiteSpace=wrap;html=1;" parent="ynCTALOJu3DHQOz7-C7g-1" vertex="1">
                    <mxGeometry x="570" y="400" width="80" height="40" as="geometry"/>
                </mxCell>
                <mxCell id="ynCTALOJu3DHQOz7-C7g-7" value="/builtin" style="rounded=0;whiteSpace=wrap;html=1;" parent="ynCTALOJu3DHQOz7-C7g-1" vertex="1">
                    <mxGeometry x="700" y="400" width="80" height="40" as="geometry"/>
                </mxCell>
                <mxCell id="ynCTALOJu3DHQOz7-C7g-8" value="/env" style="rounded=0;whiteSpace=wrap;html=1;" parent="ynCTALOJu3DHQOz7-C7g-1" vertex="1">
                    <mxGeometry x="100" y="150" width="80" height="40" as="geometry"/>
                </mxCell>
                <mxCell id="ynCTALOJu3DHQOz7-C7g-9" value="/utils" style="rounded=0;whiteSpace=wrap;html=1;" parent="ynCTALOJu3DHQOz7-C7g-1" vertex="1">
                    <mxGeometry x="280" y="40" width="100" height="40" as="geometry"/>
                </mxCell>
                <mxCell id="ynCTALOJu3DHQOz7-C7g-10" value="/libft" style="rounded=0;whiteSpace=wrap;html=1;" parent="ynCTALOJu3DHQOz7-C7g-1" vertex="1">
                    <mxGeometry x="160" y="40" width="80" height="40" as="geometry"/>
                </mxCell>
                <mxCell id="ynCTALOJu3DHQOz7-C7g-11" value="" style="endArrow=classic;html=1;entryX=0;entryY=0.5;entryDx=0;entryDy=0;exitX=1;exitY=0.5;exitDx=0;exitDy=0;" parent="ynCTALOJu3DHQOz7-C7g-1" source="ynCTALOJu3DHQOz7-C7g-6" target="ynCTALOJu3DHQOz7-C7g-7" edge="1">
                    <mxGeometry width="50" height="50" relative="1" as="geometry">
                        <mxPoint x="410" y="440" as="sourcePoint"/>
                        <mxPoint x="460" y="390" as="targetPoint"/>
                    </mxGeometry>
                </mxCell>
                <mxCell id="ynCTALOJu3DHQOz7-C7g-17" value="" style="endArrow=classic;html=1;exitX=0.25;exitY=0;exitDx=0;exitDy=0;entryX=0.5;entryY=1;entryDx=0;entryDy=0;" parent="ynCTALOJu3DHQOz7-C7g-1" source="ynCTALOJu3DHQOz7-C7g-3" target="ynCTALOJu3DHQOz7-C7g-8" edge="1">
                    <mxGeometry width="50" height="50" relative="1" as="geometry">
                        <mxPoint x="420" y="170" as="sourcePoint"/>
                        <mxPoint x="470" y="120" as="targetPoint"/>
                    </mxGeometry>
                </mxCell>
                <mxCell id="tHoF5G0eQAr2_S4WTdfD-0" value="" style="endArrow=classic;html=1;exitX=0.5;exitY=0;exitDx=0;exitDy=0;entryX=0.5;entryY=1;entryDx=0;entryDy=0;" parent="ynCTALOJu3DHQOz7-C7g-1" source="ynCTALOJu3DHQOz7-C7g-2" target="ynCTALOJu3DHQOz7-C7g-8" edge="1">
                    <mxGeometry width="50" height="50" relative="1" as="geometry">
                        <mxPoint x="400" y="360" as="sourcePoint"/>
                        <mxPoint x="450" y="310" as="targetPoint"/>
                    </mxGeometry>
                </mxCell>
                <mxCell id="tHoF5G0eQAr2_S4WTdfD-2" value="syntax_check" style="rounded=0;whiteSpace=wrap;html=1;" parent="ynCTALOJu3DHQOz7-C7g-1" vertex="1">
                    <mxGeometry x="190" y="320" width="100" height="40" as="geometry"/>
                </mxCell>
                <mxCell id="tHoF5G0eQAr2_S4WTdfD-3" value="/msutils" style="rounded=0;whiteSpace=wrap;html=1;" parent="ynCTALOJu3DHQOz7-C7g-1" vertex="1">
                    <mxGeometry x="310" y="240" width="90" height="40" as="geometry"/>
                </mxCell>
                <mxCell id="tHoF5G0eQAr2_S4WTdfD-4" value="&lt;h1&gt;コンセプト&lt;/h1&gt;&lt;p&gt;上位ほど依存が少なく実行できるコード。下位はアプリに特化した機能を持つ。&lt;/p&gt;&lt;p&gt;libftやutilsは標準関数のみを参照するシンプルなコード&lt;/p&gt;&lt;p&gt;/envはlibft/utilsは参照するが下位のコードには非依存&lt;/p&gt;&lt;p&gt;下位のコードは、テスト関数でチェックする目的以外は、できるだけstaticにする。（逆に、utilsは全てnon static）&lt;/p&gt;" style="text;html=1;strokeColor=none;fillColor=none;spacing=5;spacingTop=-20;whiteSpace=wrap;overflow=hidden;rounded=0;" parent="ynCTALOJu3DHQOz7-C7g-1" vertex="1">
                    <mxGeometry x="420" y="30" width="390" height="210" as="geometry"/>
                </mxCell>
                <mxCell id="tHoF5G0eQAr2_S4WTdfD-7" value="" style="endArrow=classic;html=1;exitX=0.5;exitY=0;exitDx=0;exitDy=0;entryX=0.5;entryY=1;entryDx=0;entryDy=0;" parent="ynCTALOJu3DHQOz7-C7g-1" source="ynCTALOJu3DHQOz7-C7g-8" target="ynCTALOJu3DHQOz7-C7g-10" edge="1">
                    <mxGeometry width="50" height="50" relative="1" as="geometry">
                        <mxPoint x="400" y="250" as="sourcePoint"/>
                        <mxPoint x="450" y="200" as="targetPoint"/>
                    </mxGeometry>
                </mxCell>
                <mxCell id="tHoF5G0eQAr2_S4WTdfD-8" value="" style="endArrow=classic;html=1;exitX=0.5;exitY=0;exitDx=0;exitDy=0;entryX=0.5;entryY=1;entryDx=0;entryDy=0;" parent="ynCTALOJu3DHQOz7-C7g-1" source="ynCTALOJu3DHQOz7-C7g-8" target="ynCTALOJu3DHQOz7-C7g-9" edge="1">
                    <mxGeometry width="50" height="50" relative="1" as="geometry">
                        <mxPoint x="400" y="250" as="sourcePoint"/>
                        <mxPoint x="450" y="200" as="targetPoint"/>
                    </mxGeometry>
                </mxCell>
                <mxCell id="tHoF5G0eQAr2_S4WTdfD-9" value="redirect" style="rounded=0;whiteSpace=wrap;html=1;" parent="ynCTALOJu3DHQOz7-C7g-1" vertex="1">
                    <mxGeometry x="560" y="320" width="100" height="40" as="geometry"/>
                </mxCell>
                <mxCell id="tHoF5G0eQAr2_S4WTdfD-10" value="" style="endArrow=classic;html=1;exitX=0.5;exitY=0;exitDx=0;exitDy=0;entryX=0.5;entryY=1;entryDx=0;entryDy=0;" parent="ynCTALOJu3DHQOz7-C7g-1" source="ynCTALOJu3DHQOz7-C7g-6" target="tHoF5G0eQAr2_S4WTdfD-9" edge="1">
                    <mxGeometry width="50" height="50" relative="1" as="geometry">
                        <mxPoint x="400" y="250" as="sourcePoint"/>
                        <mxPoint x="450" y="200" as="targetPoint"/>
                    </mxGeometry>
                </mxCell>
                <mxCell id="tHoF5G0eQAr2_S4WTdfD-11" value="" style="endArrow=classic;html=1;exitX=0.5;exitY=0;exitDx=0;exitDy=0;entryX=0.5;entryY=1;entryDx=0;entryDy=0;" parent="ynCTALOJu3DHQOz7-C7g-1" source="ynCTALOJu3DHQOz7-C7g-3" target="tHoF5G0eQAr2_S4WTdfD-2" edge="1">
                    <mxGeometry width="50" height="50" relative="1" as="geometry">
                        <mxPoint x="400" y="250" as="sourcePoint"/>
                        <mxPoint x="450" y="200" as="targetPoint"/>
                    </mxGeometry>
                </mxCell>
                <mxCell id="tHoF5G0eQAr2_S4WTdfD-15" value="" style="endArrow=classic;html=1;entryX=1;entryY=0.5;entryDx=0;entryDy=0;exitX=0;exitY=0.5;exitDx=0;exitDy=0;" parent="ynCTALOJu3DHQOz7-C7g-1" source="tHoF5G0eQAr2_S4WTdfD-3" target="ynCTALOJu3DHQOz7-C7g-8" edge="1">
                    <mxGeometry width="50" height="50" relative="1" as="geometry">
                        <mxPoint x="380" y="270" as="sourcePoint"/>
                        <mxPoint x="430" y="220" as="targetPoint"/>
                    </mxGeometry>
                </mxCell>
                <mxCell id="VQyKrYunNlFmTAsLfCt8-0" value="&lt;h1&gt;env&lt;/h1&gt;&lt;p&gt;環境変数を扱うクラス群。&lt;br&gt;外部に公開しているのはconfig, list, show。&lt;br&gt;少し複雑な処理はmsutilがラップしている。&lt;br&gt;逆にinfoはenvクラス以外からはアクセスさせない。&lt;/p&gt;" style="text;html=1;strokeColor=none;fillColor=none;spacing=5;spacingTop=-20;whiteSpace=wrap;overflow=hidden;rounded=0;" vertex="1" parent="ynCTALOJu3DHQOz7-C7g-1">
                    <mxGeometry x="20" y="480" width="320" height="120" as="geometry"/>
                </mxCell>
                <mxCell id="VQyKrYunNlFmTAsLfCt8-1" value="&lt;b&gt;&lt;u&gt;env_info.c&lt;/u&gt;&lt;/b&gt;&lt;br&gt;&lt;br&gt;g_env_list_top&lt;br&gt;g_env_question" style="rounded=0;whiteSpace=wrap;html=1;align=left;" vertex="1" parent="ynCTALOJu3DHQOz7-C7g-1">
                    <mxGeometry x="370" y="490" width="120" height="60" as="geometry"/>
                </mxCell>
                <mxCell id="VQyKrYunNlFmTAsLfCt8-2" value="&lt;b&gt;env_show.c&lt;/b&gt;&lt;br&gt;&lt;br&gt;show_env_list&lt;br&gt;show_export_list&lt;br&gt;" style="rounded=0;whiteSpace=wrap;html=1;align=left;" vertex="1" parent="ynCTALOJu3DHQOz7-C7g-1">
                    <mxGeometry x="610" y="640" width="120" height="70" as="geometry"/>
                </mxCell>
                <mxCell id="VQyKrYunNlFmTAsLfCt8-4" value="&lt;b&gt;&lt;u&gt;env_list.c&lt;/u&gt;&lt;/b&gt;&lt;br&gt;&lt;br&gt;get_env_value&lt;br&gt;set_env_value&lt;br&gt;remove_env_value" style="rounded=0;whiteSpace=wrap;html=1;align=left;" vertex="1" parent="ynCTALOJu3DHQOz7-C7g-1">
                    <mxGeometry x="370" y="620" width="120" height="70" as="geometry"/>
                </mxCell>
                <mxCell id="VQyKrYunNlFmTAsLfCt8-5" value="" style="endArrow=none;startArrow=classic;html=1;endFill=0;entryX=0.5;entryY=0;entryDx=0;entryDy=0;exitX=0.5;exitY=1;exitDx=0;exitDy=0;" edge="1" parent="ynCTALOJu3DHQOz7-C7g-1" source="VQyKrYunNlFmTAsLfCt8-1" target="VQyKrYunNlFmTAsLfCt8-4">
                    <mxGeometry width="50" height="50" relative="1" as="geometry">
                        <mxPoint x="400" y="550" as="sourcePoint"/>
                        <mxPoint x="470" y="560" as="targetPoint"/>
                    </mxGeometry>
                </mxCell>
                <mxCell id="VQyKrYunNlFmTAsLfCt8-7" value="" style="endArrow=classic;html=1;exitX=0;exitY=0.5;exitDx=0;exitDy=0;entryX=1;entryY=0.5;entryDx=0;entryDy=0;" edge="1" parent="ynCTALOJu3DHQOz7-C7g-1" source="VQyKrYunNlFmTAsLfCt8-2" target="VQyKrYunNlFmTAsLfCt8-4">
                    <mxGeometry width="50" height="50" relative="1" as="geometry">
                        <mxPoint x="310" y="640" as="sourcePoint"/>
                        <mxPoint x="360" y="590" as="targetPoint"/>
                    </mxGeometry>
                </mxCell>
                <mxCell id="VQyKrYunNlFmTAsLfCt8-9" value="&lt;b&gt;&lt;u&gt;env_config.c&lt;/u&gt;&lt;/b&gt;&lt;br&gt;&lt;br&gt;initialize&lt;br&gt;finalize&lt;br&gt;get_env_param" style="rounded=0;whiteSpace=wrap;html=1;align=left;" vertex="1" parent="ynCTALOJu3DHQOz7-C7g-1">
                    <mxGeometry x="170" y="640" width="120" height="70" as="geometry"/>
                </mxCell>
                <mxCell id="VQyKrYunNlFmTAsLfCt8-10" value="" style="endArrow=classic;html=1;exitX=0.5;exitY=0;exitDx=0;exitDy=0;entryX=0.5;entryY=1;entryDx=0;entryDy=0;" edge="1" parent="ynCTALOJu3DHQOz7-C7g-1" source="VQyKrYunNlFmTAsLfCt8-9" target="VQyKrYunNlFmTAsLfCt8-1">
                    <mxGeometry width="50" height="50" relative="1" as="geometry">
                        <mxPoint x="380" y="640" as="sourcePoint"/>
                        <mxPoint x="430" y="590" as="targetPoint"/>
                    </mxGeometry>
                </mxCell>
                <mxCell id="VQyKrYunNlFmTAsLfCt8-11" value="" style="endArrow=classic;html=1;exitX=0.5;exitY=0;exitDx=0;exitDy=0;entryX=0.5;entryY=1;entryDx=0;entryDy=0;" edge="1" parent="ynCTALOJu3DHQOz7-C7g-1" source="VQyKrYunNlFmTAsLfCt8-2" target="VQyKrYunNlFmTAsLfCt8-1">
                    <mxGeometry width="50" height="50" relative="1" as="geometry">
                        <mxPoint x="380" y="640" as="sourcePoint"/>
                        <mxPoint x="430" y="590" as="targetPoint"/>
                    </mxGeometry>
                </mxCell>
                <mxCell id="VQyKrYunNlFmTAsLfCt8-12" value="" style="endArrow=classic;html=1;exitX=1;exitY=0.5;exitDx=0;exitDy=0;entryX=0;entryY=0.5;entryDx=0;entryDy=0;" edge="1" parent="ynCTALOJu3DHQOz7-C7g-1" source="VQyKrYunNlFmTAsLfCt8-9" target="VQyKrYunNlFmTAsLfCt8-4">
                    <mxGeometry width="50" height="50" relative="1" as="geometry">
                        <mxPoint x="320" y="675" as="sourcePoint"/>
                        <mxPoint x="460" y="590" as="targetPoint"/>
                    </mxGeometry>
                </mxCell>
                <mxCell id="VQyKrYunNlFmTAsLfCt8-13" value="main, execve, exitなど。環境変数の設定関連の処理に必要" style="rounded=0;whiteSpace=wrap;html=1;align=left;" vertex="1" parent="ynCTALOJu3DHQOz7-C7g-1">
                    <mxGeometry x="170" y="860" width="120" height="60" as="geometry"/>
                </mxCell>
                <mxCell id="VQyKrYunNlFmTAsLfCt8-14" value="" style="endArrow=classic;html=1;exitX=0.5;exitY=0;exitDx=0;exitDy=0;entryX=0.5;entryY=1;entryDx=0;entryDy=0;" edge="1" parent="ynCTALOJu3DHQOz7-C7g-1" source="VQyKrYunNlFmTAsLfCt8-13" target="VQyKrYunNlFmTAsLfCt8-9">
                    <mxGeometry width="50" height="50" relative="1" as="geometry">
                        <mxPoint x="380" y="640" as="sourcePoint"/>
                        <mxPoint x="430" y="590" as="targetPoint"/>
                    </mxGeometry>
                </mxCell>
                <mxCell id="VQyKrYunNlFmTAsLfCt8-15" value="env, export&lt;br&gt;環境変数の表示に必要" style="rounded=0;whiteSpace=wrap;html=1;align=left;" vertex="1" parent="ynCTALOJu3DHQOz7-C7g-1">
                    <mxGeometry x="610" y="860" width="120" height="60" as="geometry"/>
                </mxCell>
                <mxCell id="VQyKrYunNlFmTAsLfCt8-16" value="" style="endArrow=classic;html=1;exitX=0.5;exitY=0;exitDx=0;exitDy=0;entryX=0.5;entryY=1;entryDx=0;entryDy=0;" edge="1" parent="ynCTALOJu3DHQOz7-C7g-1" source="VQyKrYunNlFmTAsLfCt8-15" target="VQyKrYunNlFmTAsLfCt8-2">
                    <mxGeometry width="50" height="50" relative="1" as="geometry">
                        <mxPoint x="480" y="640" as="sourcePoint"/>
                        <mxPoint x="530" y="590" as="targetPoint"/>
                    </mxGeometry>
                </mxCell>
                <mxCell id="VQyKrYunNlFmTAsLfCt8-17" value="cd, env, execve, export, unsetなどで実行に必要な場合。" style="rounded=0;whiteSpace=wrap;html=1;align=left;" vertex="1" parent="ynCTALOJu3DHQOz7-C7g-1">
                    <mxGeometry x="300" y="920" width="140" height="60" as="geometry"/>
                </mxCell>
                <mxCell id="VQyKrYunNlFmTAsLfCt8-18" value="&lt;u&gt;&lt;b&gt;msutil_env_param.c&lt;/b&gt;&lt;/u&gt;&lt;br&gt;&lt;br&gt;is_invalid_env_name&lt;br&gt;replace_env_param&lt;br&gt;set_exit_code" style="rounded=0;whiteSpace=wrap;html=1;align=left;" vertex="1" parent="ynCTALOJu3DHQOz7-C7g-1">
                    <mxGeometry x="450" y="720" width="140" height="80" as="geometry"/>
                </mxCell>
                <mxCell id="VQyKrYunNlFmTAsLfCt8-19" value="" style="endArrow=classic;html=1;entryX=0.5;entryY=1;entryDx=0;entryDy=0;exitX=0.5;exitY=0;exitDx=0;exitDy=0;" edge="1" parent="ynCTALOJu3DHQOz7-C7g-1" source="VQyKrYunNlFmTAsLfCt8-18" target="VQyKrYunNlFmTAsLfCt8-4">
                    <mxGeometry width="50" height="50" relative="1" as="geometry">
                        <mxPoint x="420" y="750" as="sourcePoint"/>
                        <mxPoint x="470" y="700" as="targetPoint"/>
                    </mxGeometry>
                </mxCell>
                <mxCell id="VQyKrYunNlFmTAsLfCt8-20" value="&lt;u&gt;&lt;b&gt;msutil_convert.c&lt;/b&gt;&lt;/u&gt;&lt;br&gt;&lt;br&gt;replace_tilde" style="rounded=0;whiteSpace=wrap;html=1;align=left;" vertex="1" parent="ynCTALOJu3DHQOz7-C7g-1">
                    <mxGeometry x="450" y="800" width="140" height="50" as="geometry"/>
                </mxCell>
                <mxCell id="VQyKrYunNlFmTAsLfCt8-21" value="" style="endArrow=classic;html=1;exitX=0.5;exitY=0;exitDx=0;exitDy=0;entryX=0.5;entryY=1;entryDx=0;entryDy=0;" edge="1" parent="ynCTALOJu3DHQOz7-C7g-1" source="VQyKrYunNlFmTAsLfCt8-17" target="VQyKrYunNlFmTAsLfCt8-4">
                    <mxGeometry width="50" height="50" relative="1" as="geometry">
                        <mxPoint x="430" y="850" as="sourcePoint"/>
                        <mxPoint x="480" y="800" as="targetPoint"/>
                    </mxGeometry>
                </mxCell>
                <mxCell id="VQyKrYunNlFmTAsLfCt8-22" value="cmd_manager, my_signal, prompt, syntax_checkなど、環境変数を直接触らず判定が必要な場合" style="rounded=0;whiteSpace=wrap;html=1;align=left;" vertex="1" parent="ynCTALOJu3DHQOz7-C7g-1">
                    <mxGeometry x="460" y="920" width="140" height="90" as="geometry"/>
                </mxCell>
                <mxCell id="VQyKrYunNlFmTAsLfCt8-24" value="" style="endArrow=classic;html=1;exitX=0.5;exitY=0;exitDx=0;exitDy=0;entryX=0.5;entryY=1;entryDx=0;entryDy=0;" edge="1" parent="ynCTALOJu3DHQOz7-C7g-1" source="VQyKrYunNlFmTAsLfCt8-22" target="VQyKrYunNlFmTAsLfCt8-20">
                    <mxGeometry width="50" height="50" relative="1" as="geometry">
                        <mxPoint x="520" y="750" as="sourcePoint"/>
                        <mxPoint x="570" y="700" as="targetPoint"/>
                    </mxGeometry>
                </mxCell>
            </root>
        </mxGraphModel>
    </diagram>
</mxfile>